<svg width="21" height="20" viewBox="0 0 21 20" fill="none" xmlns="http://www.w3.org/2000/svg">
<g clip-path="url(#clip0_182085_1481)">
<path d="M5.95982 10.7532C5.51786 10.7979 4.68527 10.992 4.23214 11.3916C2.87054 12.5746 3.68527 14.7398 6.44196 14.7398C8.04464 14.7398 9.64509 13.7197 10.9018 12.0836C9.11161 11.2153 7.59598 10.5925 5.95982 10.7532ZM16.2388 12.2487C18.4732 12.9943 19.692 13.2086 19.9598 13.2487C20.3189 12.2036 20.5015 11.106 20.5 10.001C20.5 4.47866 16.0223 0.000976562 10.5 0.000976562C4.97768 0.000976562 0.5 4.47866 0.5 10.001C0.5 15.5233 4.97768 20.001 10.5 20.001C13.9799 20.001 17.0446 18.222 18.8371 15.5255C17.1496 14.8604 14.0692 13.6282 12.4353 12.8447C10.875 14.7577 8.86161 15.9206 6.77232 15.9206C3.23661 15.9206 2.03795 12.838 3.70982 10.809C4.07366 10.367 4.69643 9.94517 5.65848 9.70633C7.16518 9.33803 9.56473 9.93624 11.8125 10.6751C12.2165 9.93178 12.558 9.11482 12.8103 8.24428H5.8817V7.54562H9.45312V6.29115H5.12723V5.59249H9.45312V3.80455C9.45312 3.80455 9.45312 3.50321 9.75893 3.50321H11.5045V5.59249H15.7835V6.29115H11.5067V7.54562H14.9978C14.6629 8.90946 14.1562 10.1662 13.5201 11.2688C14.5804 11.6505 15.5312 12.0121 16.2388 12.2487Z" fill="#40A9FF"/>
</g>
<defs>
<clipPath id="clip0_182085_1481">
<rect width="20" height="20" fill="white" transform="translate(0.5 0.000976562)"/>
</clipPath>
</defs>
</svg>
