<svg width="28" height="29" viewBox="0 0 28 29" fill="none" xmlns="http://www.w3.org/2000/svg">
<path d="M8.43828 15.0215C7.89688 15.0761 6.87695 15.314 6.32188 15.8035C4.65391 17.2527 5.65195 19.9051 9.02891 19.9051C10.9922 19.9051 12.9527 18.6554 14.4922 16.6511C12.2992 15.5875 10.4426 14.8246 8.43828 15.0215ZM21.0301 16.8535C23.7672 17.7668 25.2602 18.0293 25.5883 18.0785C26.0282 16.7982 26.2518 15.4537 26.25 14.1C26.25 7.33513 20.7648 1.84998 14 1.84998C7.23516 1.84998 1.75 7.33513 1.75 14.1C1.75 20.8648 7.23516 26.35 14 26.35C18.2629 26.35 22.0172 24.1707 24.2129 20.8676C22.1457 20.0527 18.3723 18.5433 16.3707 17.5836C14.4594 19.9269 11.993 21.3515 9.43359 21.3515C5.10234 21.3515 3.63398 17.5754 5.68203 15.0898C6.12773 14.5484 6.89062 14.0316 8.06914 13.739C9.91484 13.2879 12.8543 14.0207 15.6078 14.9258C16.1027 14.0152 16.5211 13.0144 16.8301 11.948H8.34258V11.0922H12.7176V9.55544H7.41836V8.69958H12.7176V6.50935C12.7176 6.50935 12.7176 6.14021 13.0922 6.14021H15.2305V8.69958H20.4723V9.55544H15.2332V11.0922H19.5098C19.0996 12.7629 18.4789 14.3023 17.6996 15.6531C18.9984 16.1207 20.1633 16.5636 21.0301 16.8535Z" fill="black" fill-opacity="0.45"/>
</svg>
