<svg width="11" height="10" viewBox="0 0 11 10" fill="none" xmlns="http://www.w3.org/2000/svg">
<path d="M6.07795 4.99948L9.00764 1.50729C9.05675 1.44925 9.01545 1.36108 8.93956 1.36108H8.04894C7.99648 1.36108 7.94626 1.38452 7.91166 1.4247L5.49536 4.30528L3.07907 1.4247C3.04559 1.38452 2.99536 1.36108 2.94179 1.36108H2.05117C1.97527 1.36108 1.93398 1.44925 1.98309 1.50729L4.91277 4.99948L1.98309 8.49167C1.97209 8.5046 1.96503 8.52042 1.96275 8.53725C1.96048 8.55408 1.96308 8.5712 1.97024 8.5866C1.97741 8.60199 1.98885 8.61501 2.00319 8.62409C2.01754 8.63318 2.03419 8.63796 2.05117 8.63787H2.94179C2.99425 8.63787 3.04447 8.61443 3.07907 8.57425L5.49536 5.69367L7.91166 8.57425C7.94514 8.61443 7.99536 8.63787 8.04894 8.63787H8.93956C9.01545 8.63787 9.05675 8.5497 9.00764 8.49167L6.07795 4.99948Z" fill="black" fill-opacity="0.45"/>
</svg>
