<svg width="17" height="16" viewBox="0 0 17 16" fill="none" xmlns="http://www.w3.org/2000/svg">
<path d="M14.3571 13.784H2.64286C2.56429 13.784 2.5 13.8483 2.5 13.9269V14.9983C2.5 15.0769 2.56429 15.1412 2.64286 15.1412H14.3571C14.4357 15.1412 14.5 15.0769 14.5 14.9983V13.9269C14.5 13.8483 14.4357 13.784 14.3571 13.784ZM14.3571 0.855469H2.64286C2.56429 0.855469 2.5 0.919754 2.5 0.998326V2.06975C2.5 2.14833 2.56429 2.21261 2.64286 2.21261H14.3571C14.4357 2.21261 14.5 2.14833 14.5 2.06975V0.998326C14.5 0.919754 14.4357 0.855469 14.3571 0.855469ZM10.2643 5.60547C10.3714 5.60547 10.4321 5.48047 10.3661 5.39654L8.56607 3.11797C8.55416 3.10255 8.53887 3.09007 8.52138 3.08148C8.50389 3.07289 8.48466 3.06842 8.46518 3.06842C8.44569 3.06842 8.42647 3.07289 8.40898 3.08148C8.39149 3.09007 8.3762 3.10255 8.36429 3.11797L6.56429 5.39654C6.54929 5.4156 6.53997 5.43851 6.53739 5.46263C6.53481 5.48674 6.53907 5.5111 6.5497 5.53291C6.56032 5.55471 6.57687 5.57308 6.59745 5.58592C6.61803 5.59875 6.64182 5.60553 6.66607 5.60547H7.85714V10.3912H6.73571C6.62857 10.3912 6.56786 10.5162 6.63393 10.6001L8.43393 12.8769C8.48571 12.943 8.58571 12.943 8.63571 12.8769L10.4357 10.6001C10.5018 10.5162 10.4429 10.3912 10.3339 10.3912H9.14286V5.60547H10.2643Z" fill="black" fill-opacity="0.85"/>
</svg>
