<svg width="16" height="16" viewBox="0 0 16 16" fill="none" xmlns="http://www.w3.org/2000/svg">
<g clip-path="url(#clip0_182085_2450)">
<path d="M3.45872 12.284C3.49443 12.284 3.53015 12.2805 3.56586 12.2751L6.56943 11.7483C6.60515 11.7412 6.63908 11.7251 6.66408 11.6983L14.2337 4.12868C14.2503 4.11216 14.2634 4.09254 14.2724 4.07094C14.2813 4.04934 14.2859 4.02618 14.2859 4.00279C14.2859 3.9794 14.2813 3.95625 14.2724 3.93464C14.2634 3.91304 14.2503 3.89342 14.2337 3.8769L11.2659 0.907254C11.2319 0.873326 11.1873 0.855469 11.1391 0.855469C11.0909 0.855469 11.0462 0.873326 11.0123 0.907254L3.44265 8.4769C3.41586 8.50368 3.39979 8.53583 3.39265 8.57154L2.86586 11.5751C2.84849 11.6708 2.8547 11.7692 2.88395 11.862C2.91319 11.9547 2.9646 12.0389 3.03372 12.1073C3.15158 12.2215 3.29979 12.284 3.45872 12.284ZM4.66229 9.16975L11.1391 2.69475L12.448 4.00368L5.97122 10.4787L4.38372 10.759L4.66229 9.16975ZM14.5712 13.784H1.42836C1.11229 13.784 0.856934 14.0394 0.856934 14.3555V14.9983C0.856934 15.0769 0.921219 15.1412 0.999791 15.1412H14.9998C15.0784 15.1412 15.1426 15.0769 15.1426 14.9983V14.3555C15.1426 14.0394 14.8873 13.784 14.5712 13.784Z" fill="black" fill-opacity="0.45"/>
</g>
<defs>
<clipPath id="clip0_182085_2450">
<rect width="16" height="16" fill="white"/>
</clipPath>
</defs>
</svg>
