<svg width="17" height="16" viewBox="0 0 17 16" fill="none" xmlns="http://www.w3.org/2000/svg">
<path d="M4.53549 3.07818L5.31942 2.29425C5.3383 2.27527 5.35148 2.25138 5.35745 2.22528C5.36343 2.19919 5.36196 2.17194 5.35322 2.14664C5.34447 2.12133 5.3288 2.09899 5.30799 2.08216C5.28718 2.06532 5.26206 2.05466 5.23549 2.05139L2.37477 1.71389C2.2837 1.70318 2.20513 1.77996 2.21584 1.87282L2.55334 4.73353C2.56763 4.85139 2.71227 4.90139 2.7962 4.81746L3.57656 4.03711L5.96406 6.42282C6.01942 6.47818 6.11049 6.47818 6.16585 6.42282L6.92299 5.66746C6.97835 5.61211 6.97835 5.52103 6.92299 5.46568L4.53549 3.07818ZM10.8337 6.42282C10.8891 6.47818 10.9801 6.47818 11.0355 6.42282L13.423 4.03711L14.2033 4.81746C14.2223 4.83635 14.2462 4.84952 14.2723 4.8555C14.2984 4.86147 14.3257 4.86001 14.351 4.85126C14.3763 4.84252 14.3986 4.82685 14.4154 4.80604C14.4323 4.78522 14.4429 4.7601 14.4462 4.73353L14.7837 1.87461C14.7944 1.78353 14.7176 1.70496 14.6248 1.71568L11.7641 2.05318C11.6462 2.06746 11.5962 2.21211 11.6801 2.29603L12.4641 3.07996L10.0766 5.46389C10.05 5.49074 10.0351 5.527 10.0351 5.56478C10.0351 5.60257 10.05 5.63883 10.0766 5.66568L10.8337 6.42282ZM14.4462 11.2657C14.4319 11.1478 14.2873 11.0978 14.2033 11.1817L13.423 11.9621L11.0355 9.57639C11.0086 9.5498 10.9724 9.53489 10.9346 9.53489C10.8968 9.53489 10.8606 9.5498 10.8337 9.57639L10.0766 10.3317C10.05 10.3586 10.0351 10.3949 10.0351 10.4326C10.0351 10.4704 10.05 10.5067 10.0766 10.5335L12.4641 12.921L11.6801 13.705C11.6612 13.7239 11.6481 13.7478 11.6421 13.7739C11.6361 13.8 11.6376 13.8273 11.6463 13.8526C11.6551 13.8779 11.6707 13.9002 11.6916 13.9171C11.7124 13.9339 11.7375 13.9445 11.7641 13.9478L14.6248 14.2853C14.7158 14.296 14.7944 14.2192 14.7837 14.1264L14.4462 11.2657ZM6.16585 9.57639C6.139 9.5498 6.10274 9.53489 6.06495 9.53489C6.02717 9.53489 5.99091 9.5498 5.96406 9.57639L3.57656 11.9621L2.7962 11.1817C2.77723 11.1629 2.75333 11.1497 2.72724 11.1437C2.70114 11.1377 2.67389 11.1392 2.64859 11.1479C2.62329 11.1567 2.60095 11.1724 2.58411 11.1932C2.56727 11.214 2.55661 11.2391 2.55334 11.2657L2.21584 14.1246C2.20513 14.2157 2.28192 14.2942 2.37477 14.2835L5.23549 13.946C5.35335 13.9317 5.40335 13.7871 5.31942 13.7032L4.53549 12.921L6.92299 10.5353C6.97835 10.48 6.97835 10.3889 6.92299 10.3335L6.16585 9.57639Z" fill="black" fill-opacity="0.85"/>
</svg>
