<svg width="14" height="14" viewBox="0 0 14 14" fill="none" xmlns="http://www.w3.org/2000/svg">
<g clip-path="url(#clip0_39889_87877)">
<path d="M6.99375 0.191468C3.12969 0.189905 0 3.31803 0 7.17897C0 10.2321 1.95781 12.8274 4.68437 13.7805C5.05156 13.8727 4.99531 13.6118 4.99531 13.4337V12.2227C2.875 12.4712 2.78906 11.068 2.64687 10.8337C2.35938 10.343 1.67969 10.218 1.88281 9.98366C2.36562 9.73522 2.85781 10.0462 3.42812 10.8883C3.84062 11.4993 4.64531 11.3962 5.05312 11.2946C5.14219 10.9274 5.33281 10.5993 5.59531 10.3446C3.39844 9.95084 2.48281 8.61022 2.48281 7.01647C2.48281 6.24303 2.7375 5.53209 3.2375 4.95866C2.91875 4.01334 3.26719 3.20397 3.31406 3.08366C4.22188 3.00241 5.16562 3.73366 5.23906 3.79147C5.75469 3.65241 6.34375 3.57897 7.00313 3.57897C7.66563 3.57897 8.25625 3.65553 8.77656 3.79616C8.95312 3.66178 9.82812 3.03366 10.6719 3.11022C10.7172 3.23053 11.0578 4.02116 10.7578 4.95397C11.2641 5.52897 11.5219 6.24616 11.5219 7.02116C11.5219 8.61803 10.6 9.96022 8.39688 10.3477C8.58558 10.5333 8.73541 10.7546 8.83763 10.9987C8.93984 11.2429 8.99238 11.5049 8.99219 11.7696V13.5274C9.00469 13.668 8.99219 13.8071 9.22656 13.8071C11.9937 12.8743 13.9859 10.2602 13.9859 7.18053C13.9859 3.31803 10.8547 0.191468 6.99375 0.191468Z" fill="black" fill-opacity="0.45"/>
</g>
<defs>
<clipPath id="clip0_39889_87877">
<rect width="14" height="14" fill="white"/>
</clipPath>
</defs>
</svg>
