<svg width="181" height="48" viewBox="0 0 181 48" fill="none" xmlns="http://www.w3.org/2000/svg">
<g clip-path="url(#clip0_181925_6522)">
<path d="M14.6542 8.66821L0.668885 22.642C-0.0829877 23.3933 -0.0829877 24.6067 0.668885 25.3579L14.6542 39.3317C15.4061 40.083 16.6205 40.083 17.3723 39.3317L23.2362 33.4727C23.9095 32.7999 23.9095 31.7091 23.2362 31.0363C22.5628 30.3635 21.4711 30.3635 20.7977 31.0363L16.3524 35.4779C16.1653 35.6649 15.8812 35.6649 15.6941 35.4779L4.52584 24.3189C4.3387 24.1319 4.3387 23.8481 4.52584 23.6611L15.6941 12.502C15.8812 12.315 16.1653 12.315 16.3524 12.502L20.7977 16.9437C21.4711 17.6165 22.5628 17.6165 23.2362 16.9437C23.9095 16.2709 23.9095 15.1801 23.2362 14.5073L17.373 8.64888C16.618 7.91389 15.4032 7.91984 14.6542 8.66821Z" fill="url(#paint0_linear_181925_6522)"/>
<path d="M14.6542 8.66821L0.668885 22.642C-0.0829877 23.3933 -0.0829877 24.6067 0.668885 25.3579L14.6542 39.3317C15.4061 40.083 16.6205 40.083 17.3723 39.3317L23.2362 33.4727C23.9095 32.7999 23.9095 31.7091 23.2362 31.0363C22.5628 30.3635 21.4711 30.3635 20.7977 31.0363L16.3524 35.4779C16.1653 35.6649 15.8812 35.6649 15.6941 35.4779L4.52584 24.3189C4.3387 24.1319 4.3387 23.8481 4.52584 23.6611L15.6941 12.502C16.1601 12.1003 16.9204 11.2867 18.0368 11.0964C18.8666 10.9549 19.7737 11.2662 20.7583 12.0302C20.1 11.3725 18.9716 10.2454 17.373 8.64888C16.618 7.91389 15.4032 7.91984 14.6542 8.66821Z" fill="url(#paint1_linear_181925_6522)"/>
<path d="M24.5897 29.7367C25.263 30.4095 26.3547 30.4095 27.0281 29.7367L31.3536 25.4148C32.1054 24.6635 32.1054 23.4501 31.3536 22.6989L26.9905 18.3548C26.3155 17.6828 25.2235 17.6838 24.5497 18.357C23.8763 19.0298 23.8763 20.1206 24.5497 20.7934L27.4966 23.7379C27.6837 23.9249 27.6837 24.2087 27.4966 24.3957L24.5897 27.3002C23.9163 27.973 23.9163 29.0639 24.5897 29.7367Z" fill="url(#paint2_linear_181925_6522)"/>
<path d="M16.0832 27.8427C18.1686 27.8427 19.8592 26.1535 19.8592 24.0698C19.8592 21.9861 18.1686 20.2969 16.0832 20.2969C13.9977 20.2969 12.3071 21.9861 12.3071 24.0698C12.3071 26.1535 13.9977 27.8427 16.0832 27.8427Z" fill="url(#paint3_linear_181925_6522)"/>
</g>
<path d="M50.3457 19.3916L46.8652 30H44.0615L48.8164 17.2031H50.6006L50.3457 19.3916ZM53.2373 30L49.748 19.3916L49.4668 17.2031H51.2686L56.0498 30H53.2373ZM53.0791 25.2363V27.3018H46.3203V25.2363H53.0791ZM59.2754 22.5205V30H56.7441V20.4902H59.1172L59.2754 22.5205ZM58.9062 24.9111H58.2207C58.2207 24.208 58.3115 23.5752 58.4932 23.0127C58.6748 22.4443 58.9297 21.9609 59.2578 21.5625C59.5859 21.1582 59.9756 20.8506 60.4268 20.6396C60.8838 20.4229 61.3936 20.3145 61.9561 20.3145C62.4014 20.3145 62.8086 20.3789 63.1777 20.5078C63.5469 20.6367 63.8633 20.8418 64.127 21.123C64.3965 21.4043 64.6016 21.7764 64.7422 22.2393C64.8887 22.7021 64.9619 23.2676 64.9619 23.9355V30H62.4131V23.9268C62.4131 23.5049 62.3545 23.1768 62.2373 22.9424C62.1201 22.708 61.9473 22.5439 61.7188 22.4502C61.4961 22.3506 61.2207 22.3008 60.8926 22.3008C60.5527 22.3008 60.2568 22.3682 60.0049 22.5029C59.7588 22.6377 59.5537 22.8252 59.3896 23.0654C59.2314 23.2998 59.1113 23.5752 59.0293 23.8916C58.9473 24.208 58.9062 24.5479 58.9062 24.9111ZM71.5449 20.4902V22.2832H66.0078V20.4902H71.5449ZM67.3789 18.1436H69.9102V27.1348C69.9102 27.4102 69.9453 27.6211 70.0156 27.7676C70.0918 27.9141 70.2031 28.0166 70.3496 28.0752C70.4961 28.1279 70.6807 28.1543 70.9033 28.1543C71.0615 28.1543 71.2021 28.1484 71.3252 28.1367C71.4541 28.1191 71.5625 28.1016 71.6504 28.084L71.6592 29.9473C71.4424 30.0176 71.208 30.0732 70.9561 30.1143C70.7041 30.1553 70.4258 30.1758 70.1211 30.1758C69.5645 30.1758 69.0781 30.085 68.6621 29.9033C68.252 29.7158 67.9355 29.417 67.7129 29.0068C67.4902 28.5967 67.3789 28.0576 67.3789 27.3896V18.1436ZM81.5557 30H78.7695L78.7871 27.9434H81.5557C82.2471 27.9434 82.8301 27.7881 83.3047 27.4775C83.7793 27.1611 84.1367 26.7012 84.377 26.0977C84.623 25.4941 84.7461 24.7646 84.7461 23.9092V23.2852C84.7461 22.6289 84.6758 22.0518 84.5352 21.5537C84.4004 21.0557 84.1982 20.6367 83.9287 20.2969C83.6592 19.957 83.3281 19.7021 82.9355 19.5322C82.543 19.3564 82.0918 19.2686 81.582 19.2686H78.7168V17.2031H81.582C82.4375 17.2031 83.2197 17.3496 83.9287 17.6426C84.6436 17.9297 85.2617 18.3428 85.7832 18.8818C86.3047 19.4209 86.7061 20.0654 86.9873 20.8154C87.2744 21.5596 87.418 22.3887 87.418 23.3027V23.9092C87.418 24.8174 87.2744 25.6465 86.9873 26.3965C86.7061 27.1465 86.3047 27.791 85.7832 28.3301C85.2676 28.8633 84.6494 29.2764 83.9287 29.5693C83.2139 29.8564 82.4229 30 81.5557 30ZM80.2637 17.2031V30H77.627V17.2031H80.2637ZM93.5527 30.1758C92.8145 30.1758 92.1523 30.0586 91.5664 29.8242C90.9805 29.584 90.4824 29.2529 90.0723 28.8311C89.668 28.4092 89.3574 27.9199 89.1406 27.3633C88.9238 26.8008 88.8154 26.2031 88.8154 25.5703V25.2188C88.8154 24.498 88.918 23.8389 89.123 23.2412C89.3281 22.6436 89.6211 22.125 90.002 21.6855C90.3887 21.2461 90.8574 20.9092 91.4082 20.6748C91.959 20.4346 92.5801 20.3145 93.2715 20.3145C93.9453 20.3145 94.543 20.4258 95.0645 20.6484C95.5859 20.8711 96.0225 21.1875 96.374 21.5977C96.7314 22.0078 97.001 22.5 97.1826 23.0742C97.3643 23.6426 97.4551 24.2754 97.4551 24.9727V26.0273H89.8965V24.3398H94.9678V24.1465C94.9678 23.7949 94.9033 23.4814 94.7744 23.2061C94.6514 22.9248 94.4639 22.7021 94.2119 22.5381C93.96 22.374 93.6377 22.292 93.2451 22.292C92.9111 22.292 92.624 22.3652 92.3838 22.5117C92.1436 22.6582 91.9473 22.8633 91.7949 23.127C91.6484 23.3906 91.5371 23.7012 91.4609 24.0586C91.3906 24.4102 91.3555 24.7969 91.3555 25.2188V25.5703C91.3555 25.9512 91.4082 26.3027 91.5137 26.625C91.625 26.9473 91.7803 27.2256 91.9795 27.46C92.1846 27.6943 92.4307 27.876 92.7178 28.0049C93.0107 28.1338 93.3418 28.1982 93.7109 28.1982C94.168 28.1982 94.5928 28.1104 94.9854 27.9346C95.3838 27.7529 95.7266 27.4805 96.0137 27.1172L97.2441 28.4531C97.0449 28.7402 96.7725 29.0156 96.4268 29.2793C96.0869 29.543 95.6768 29.7598 95.1963 29.9297C94.7158 30.0938 94.168 30.1758 93.5527 30.1758ZM104.038 27.3721C104.038 27.1904 103.985 27.0264 103.88 26.8799C103.774 26.7334 103.578 26.5986 103.291 26.4756C103.01 26.3467 102.603 26.2295 102.069 26.124C101.589 26.0186 101.141 25.8867 100.725 25.7285C100.314 25.5645 99.957 25.3682 99.6523 25.1396C99.3535 24.9111 99.1191 24.6416 98.9492 24.3311C98.7793 24.0146 98.6943 23.6543 98.6943 23.25C98.6943 22.8516 98.7793 22.4766 98.9492 22.125C99.125 21.7734 99.374 21.4629 99.6963 21.1934C100.024 20.918 100.423 20.7041 100.892 20.5518C101.366 20.3936 101.899 20.3145 102.491 20.3145C103.317 20.3145 104.026 20.4463 104.618 20.71C105.216 20.9736 105.673 21.3369 105.989 21.7998C106.312 22.2568 106.473 22.7783 106.473 23.3643H103.941C103.941 23.1182 103.889 22.8984 103.783 22.7051C103.684 22.5059 103.525 22.3506 103.309 22.2393C103.098 22.1221 102.822 22.0635 102.482 22.0635C102.201 22.0635 101.958 22.1133 101.753 22.2129C101.548 22.3066 101.39 22.4355 101.278 22.5996C101.173 22.7578 101.12 22.9336 101.12 23.127C101.12 23.2734 101.149 23.4053 101.208 23.5225C101.272 23.6338 101.375 23.7363 101.516 23.8301C101.656 23.9238 101.838 24.0117 102.061 24.0938C102.289 24.1699 102.57 24.2402 102.904 24.3047C103.59 24.4453 104.202 24.6299 104.741 24.8584C105.28 25.0811 105.708 25.3857 106.024 25.7725C106.341 26.1533 106.499 26.6543 106.499 27.2754C106.499 27.6973 106.405 28.084 106.218 28.4355C106.03 28.7871 105.761 29.0947 105.409 29.3584C105.058 29.6162 104.636 29.8184 104.144 29.9648C103.657 30.1055 103.109 30.1758 102.5 30.1758C101.615 30.1758 100.865 30.0176 100.25 29.7012C99.6406 29.3848 99.1777 28.9834 98.8613 28.4971C98.5508 28.0049 98.3955 27.501 98.3955 26.9854H100.795C100.807 27.3311 100.895 27.6094 101.059 27.8203C101.229 28.0312 101.442 28.1836 101.7 28.2773C101.964 28.3711 102.248 28.418 102.553 28.418C102.881 28.418 103.153 28.374 103.37 28.2861C103.587 28.1924 103.751 28.0693 103.862 27.917C103.979 27.7588 104.038 27.5771 104.038 27.3721ZM110.814 20.4902V30H108.274V20.4902H110.814ZM108.116 18.0117C108.116 17.6426 108.245 17.3379 108.503 17.0977C108.761 16.8574 109.106 16.7373 109.54 16.7373C109.968 16.7373 110.311 16.8574 110.568 17.0977C110.832 17.3379 110.964 17.6426 110.964 18.0117C110.964 18.3809 110.832 18.6855 110.568 18.9258C110.311 19.166 109.968 19.2861 109.54 19.2861C109.106 19.2861 108.761 19.166 108.503 18.9258C108.245 18.6855 108.116 18.3809 108.116 18.0117ZM118.927 20.4902H121.221V29.6836C121.221 30.5508 121.027 31.2861 120.641 31.8896C120.26 32.499 119.727 32.959 119.041 33.2695C118.355 33.5859 117.559 33.7441 116.65 33.7441C116.252 33.7441 115.83 33.6914 115.385 33.5859C114.945 33.4805 114.523 33.3164 114.119 33.0938C113.721 32.8711 113.387 32.5898 113.117 32.25L114.233 30.7559C114.526 31.0957 114.866 31.3594 115.253 31.5469C115.64 31.7402 116.067 31.8369 116.536 31.8369C116.993 31.8369 117.38 31.752 117.696 31.582C118.013 31.418 118.256 31.1748 118.426 30.8525C118.596 30.5361 118.681 30.1523 118.681 29.7012V22.6875L118.927 20.4902ZM112.528 25.3594V25.1748C112.528 24.4482 112.616 23.7891 112.792 23.1973C112.974 22.5996 113.229 22.0869 113.557 21.6592C113.891 21.2314 114.295 20.9004 114.77 20.666C115.244 20.4316 115.78 20.3145 116.378 20.3145C117.011 20.3145 117.541 20.4316 117.969 20.666C118.396 20.9004 118.748 21.2344 119.023 21.668C119.299 22.0957 119.513 22.6025 119.665 23.1885C119.823 23.7686 119.946 24.4043 120.034 25.0957V25.5C119.946 26.1621 119.814 26.7773 119.639 27.3457C119.463 27.9141 119.231 28.4121 118.944 28.8398C118.657 29.2617 118.3 29.5898 117.872 29.8242C117.45 30.0586 116.946 30.1758 116.36 30.1758C115.774 30.1758 115.244 30.0557 114.77 29.8154C114.301 29.5752 113.899 29.2383 113.565 28.8047C113.231 28.3711 112.974 27.8613 112.792 27.2754C112.616 26.6895 112.528 26.0508 112.528 25.3594ZM115.06 25.1748V25.3594C115.06 25.752 115.098 26.1182 115.174 26.458C115.25 26.7979 115.367 27.0996 115.525 27.3633C115.689 27.6211 115.892 27.8232 116.132 27.9697C116.378 28.1104 116.668 28.1807 117.002 28.1807C117.465 28.1807 117.843 28.084 118.136 27.8906C118.429 27.6914 118.648 27.4189 118.795 27.0732C118.941 26.7275 119.026 26.3291 119.05 25.8779V24.7266C119.038 24.3574 118.988 24.0264 118.9 23.7334C118.812 23.4346 118.689 23.1797 118.531 22.9688C118.373 22.7578 118.168 22.5938 117.916 22.4766C117.664 22.3594 117.365 22.3008 117.02 22.3008C116.686 22.3008 116.396 22.377 116.149 22.5293C115.909 22.6758 115.707 22.8779 115.543 23.1357C115.385 23.3936 115.265 23.6982 115.183 24.0498C115.101 24.3955 115.06 24.7705 115.06 25.1748ZM125.668 22.5205V30H123.137V20.4902H125.51L125.668 22.5205ZM125.299 24.9111H124.613C124.613 24.208 124.704 23.5752 124.886 23.0127C125.067 22.4443 125.322 21.9609 125.65 21.5625C125.979 21.1582 126.368 20.8506 126.819 20.6396C127.276 20.4229 127.786 20.3145 128.349 20.3145C128.794 20.3145 129.201 20.3789 129.57 20.5078C129.939 20.6367 130.256 20.8418 130.52 21.123C130.789 21.4043 130.994 21.7764 131.135 22.2393C131.281 22.7021 131.354 23.2676 131.354 23.9355V30H128.806V23.9268C128.806 23.5049 128.747 23.1768 128.63 22.9424C128.513 22.708 128.34 22.5439 128.111 22.4502C127.889 22.3506 127.613 22.3008 127.285 22.3008C126.945 22.3008 126.649 22.3682 126.397 22.5029C126.151 22.6377 125.946 22.8252 125.782 23.0654C125.624 23.2998 125.504 23.5752 125.422 23.8916C125.34 24.208 125.299 24.5479 125.299 24.9111ZM142.903 25.4385H139.643V23.3818H142.903C143.407 23.3818 143.817 23.2998 144.134 23.1357C144.45 22.9658 144.682 22.7314 144.828 22.4326C144.975 22.1338 145.048 21.7969 145.048 21.4219C145.048 21.041 144.975 20.6865 144.828 20.3584C144.682 20.0303 144.45 19.7666 144.134 19.5674C143.817 19.3682 143.407 19.2686 142.903 19.2686H140.557V30H137.92V17.2031H142.903C143.905 17.2031 144.764 17.3848 145.479 17.748C146.199 18.1055 146.75 18.6006 147.131 19.2334C147.512 19.8662 147.702 20.5898 147.702 21.4043C147.702 22.2305 147.512 22.9453 147.131 23.5488C146.75 24.1523 146.199 24.6182 145.479 24.9463C144.764 25.2744 143.905 25.4385 142.903 25.4385ZM151.895 22.5645V30H149.363V20.4902H151.745L151.895 22.5645ZM154.76 20.4287L154.716 22.7754C154.593 22.7578 154.443 22.7432 154.268 22.7314C154.098 22.7139 153.942 22.7051 153.802 22.7051C153.444 22.7051 153.134 22.752 152.87 22.8457C152.612 22.9336 152.396 23.0654 152.22 23.2412C152.05 23.417 151.921 23.6309 151.833 23.8828C151.751 24.1348 151.704 24.4219 151.692 24.7441L151.183 24.5859C151.183 23.9707 151.244 23.4053 151.367 22.8896C151.49 22.3682 151.669 21.9141 151.903 21.5273C152.144 21.1406 152.437 20.8418 152.782 20.6309C153.128 20.4199 153.523 20.3145 153.969 20.3145C154.109 20.3145 154.253 20.3262 154.399 20.3496C154.546 20.3672 154.666 20.3936 154.76 20.4287ZM155.287 25.3418V25.1572C155.287 24.46 155.387 23.8184 155.586 23.2324C155.785 22.6406 156.075 22.1279 156.456 21.6943C156.837 21.2607 157.306 20.9238 157.862 20.6836C158.419 20.4375 159.058 20.3145 159.778 20.3145C160.499 20.3145 161.141 20.4375 161.703 20.6836C162.266 20.9238 162.737 21.2607 163.118 21.6943C163.505 22.1279 163.798 22.6406 163.997 23.2324C164.196 23.8184 164.296 24.46 164.296 25.1572V25.3418C164.296 26.0332 164.196 26.6748 163.997 27.2666C163.798 27.8525 163.505 28.3652 163.118 28.8047C162.737 29.2383 162.269 29.5752 161.712 29.8154C161.155 30.0557 160.517 30.1758 159.796 30.1758C159.075 30.1758 158.434 30.0557 157.871 29.8154C157.314 29.5752 156.843 29.2383 156.456 28.8047C156.075 28.3652 155.785 27.8525 155.586 27.2666C155.387 26.6748 155.287 26.0332 155.287 25.3418ZM157.818 25.1572V25.3418C157.818 25.7402 157.854 26.1123 157.924 26.458C157.994 26.8037 158.105 27.1084 158.258 27.3721C158.416 27.6299 158.621 27.832 158.873 27.9785C159.125 28.125 159.433 28.1982 159.796 28.1982C160.147 28.1982 160.449 28.125 160.701 27.9785C160.953 27.832 161.155 27.6299 161.308 27.3721C161.46 27.1084 161.571 26.8037 161.642 26.458C161.718 26.1123 161.756 25.7402 161.756 25.3418V25.1572C161.756 24.7705 161.718 24.4072 161.642 24.0674C161.571 23.7217 161.457 23.417 161.299 23.1533C161.146 22.8838 160.944 22.6729 160.692 22.5205C160.44 22.3682 160.136 22.292 159.778 22.292C159.421 22.292 159.116 22.3682 158.864 22.5205C158.618 22.6729 158.416 22.8838 158.258 23.1533C158.105 23.417 157.994 23.7217 157.924 24.0674C157.854 24.4072 157.818 24.7705 157.818 25.1572Z" fill="white"/>
<defs>
<linearGradient id="paint0_linear_181925_6522" x1="14.7836" y1="8.10224" x2="28.0737" y2="16.2183" gradientUnits="userSpaceOnUse">
<stop stop-color="#4285EB"/>
<stop offset="1" stop-color="#2EC7FF"/>
</linearGradient>
<linearGradient id="paint1_linear_181925_6522" x1="16.5662" y1="8.10224" x2="10.0021" y2="42.0272" gradientUnits="userSpaceOnUse">
<stop stop-color="#29CDFF"/>
<stop offset="0.378601" stop-color="#148EFF"/>
<stop offset="1" stop-color="#0A60FF"/>
</linearGradient>
<linearGradient id="paint2_linear_181925_6522" x1="29.5313" y1="16.2439" x2="20.9904" y2="29.6012" gradientUnits="userSpaceOnUse">
<stop stop-color="#FA816E"/>
<stop offset="0.414726" stop-color="#F74A5C"/>
<stop offset="1" stop-color="#F51D2C"/>
</linearGradient>
<linearGradient id="paint3_linear_181925_6522" x1="17.4522" y1="17.6037" x2="14.6104" y2="28.9714" gradientUnits="userSpaceOnUse">
<stop stop-color="#FA8E7D"/>
<stop offset="0.512635" stop-color="#F74A5C"/>
<stop offset="1" stop-color="#F51D2C"/>
</linearGradient>
<clipPath id="clip0_181925_6522">
<rect width="32" height="32" fill="white" transform="translate(0 8)"/>
</clipPath>
</defs>
</svg>
