<svg width="14" height="14" viewBox="0 0 14 14" fill="none" xmlns="http://www.w3.org/2000/svg">
<g clip-path="url(#clip0_181957_6183)">
<path d="M13.9625 6.92829L8.425 1.47204C8.41353 1.46051 8.39989 1.45137 8.38488 1.44512C8.36986 1.43888 8.35376 1.43567 8.3375 1.43567C8.32124 1.43567 8.30514 1.43888 8.29012 1.44512C8.27511 1.45137 8.26147 1.46051 8.25 1.47204L4.52031 5.14704C4.49684 5.17033 4.48351 5.20194 4.48322 5.235C4.48292 5.26806 4.49569 5.2999 4.51875 5.3236L4.52031 5.32516L5.14531 5.94079L3.31406 7.74235C3.29059 7.76564 3.27726 7.79725 3.27697 7.83031C3.27667 7.86337 3.28944 7.89522 3.3125 7.91891L3.31406 7.92048L3.93125 8.52829L0.976562 11.4502H0.126562C0.0578125 11.4502 0 11.5064 0 11.5752V12.4377C0 12.5064 0.05625 12.5627 0.125 12.5627H5.51406C5.54688 12.5627 5.57812 12.5502 5.60156 12.5267L6.79063 11.3455L7.42188 11.9674C7.43335 11.9789 7.44698 11.988 7.462 11.9943C7.47701 12.0005 7.49311 12.0037 7.50937 12.0037C7.52564 12.0037 7.54174 12.0005 7.55675 11.9943C7.57177 11.988 7.5854 11.9789 7.59688 11.9674L9.42656 10.1611L10.0531 10.7783C10.0646 10.7898 10.0782 10.799 10.0932 10.8052C10.1083 10.8114 10.1244 10.8147 10.1406 10.8147C10.1569 10.8147 10.173 10.8114 10.188 10.8052C10.203 10.799 10.2167 10.7898 10.2281 10.7783L13.9578 7.10329C14.0109 7.05641 14.0109 6.97829 13.9625 6.92829ZM5.09062 11.4408H2.5875L4.6875 9.36266L5.93906 10.5955L5.09062 11.4408ZM7.50937 10.4705L4.83125 7.83141L5.90312 6.77516L8.58125 9.41423L7.50937 10.4705ZM10.1422 9.28141L6.03594 5.2361L8.3375 2.96891L12.4438 7.01579L10.1422 9.28141Z" fill="black" fill-opacity="0.85"/>
</g>
<defs>
<clipPath id="clip0_181957_6183">
<rect width="14" height="14" fill="white"/>
</clipPath>
</defs>
</svg>
