<svg width="14" height="14" viewBox="0 0 14 14" fill="none" xmlns="http://www.w3.org/2000/svg">
<g clip-path="url(#clip0_181957_6159)">
<path d="M6.2504 10.2501C6.2504 10.449 6.32941 10.6398 6.47007 10.7805C6.61072 10.9211 6.80148 11.0001 7.0004 11.0001C7.19931 11.0001 7.39007 10.9211 7.53073 10.7805C7.67138 10.6398 7.7504 10.449 7.7504 10.2501C7.7504 10.0512 7.67138 9.86045 7.53073 9.71979C7.39007 9.57914 7.19931 9.50012 7.0004 9.50012C6.80148 9.50012 6.61072 9.57914 6.47007 9.71979C6.32941 9.86045 6.2504 10.0512 6.2504 10.2501ZM6.5004 5.50012V8.37512C6.5004 8.44387 6.55665 8.50012 6.6254 8.50012H7.3754C7.44415 8.50012 7.5004 8.44387 7.5004 8.37512V5.50012C7.5004 5.43137 7.44415 5.37512 7.3754 5.37512H6.6254C6.55665 5.37512 6.5004 5.43137 6.5004 5.50012ZM13.9332 12.3751L7.43321 1.12512C7.33633 0.957935 7.16915 0.875122 7.0004 0.875122C6.83165 0.875122 6.6629 0.957935 6.56758 1.12512L0.0675835 12.3751C-0.124604 12.7095 0.116021 13.1251 0.500396 13.1251H13.5004C13.8848 13.1251 14.1254 12.7095 13.9332 12.3751ZM1.69102 11.9392L7.0004 2.74856L12.3098 11.9392H1.69102Z" fill="black" fill-opacity="0.85"/>
</g>
<defs>
<clipPath id="clip0_181957_6159">
<rect width="14" height="14" fill="white"/>
</clipPath>
</defs>
</svg>
