<svg width="14" height="14" viewBox="0 0 14 14" fill="none" xmlns="http://www.w3.org/2000/svg">
<path d="M13.45 4.52962C13.0986 3.69791 12.5892 2.94228 11.95 2.30462C11.3123 1.66541 10.5567 1.156 9.725 0.804616C8.86094 0.438991 7.94531 0.254616 7 0.254616C6.05469 0.254616 5.13906 0.438991 4.275 0.804616C3.4433 1.156 2.68767 1.66541 2.05 2.30462C1.41079 2.94228 0.901382 3.69791 0.55 4.52962C0.184375 5.39368 0 6.3093 0 7.25462C0 9.32805 0.910937 11.2812 2.49844 12.6156L2.525 12.6374C2.61563 12.7124 2.72969 12.7546 2.84687 12.7546H11.1547C11.2719 12.7546 11.3859 12.7124 11.4766 12.6374L11.5031 12.6156C13.0891 11.2812 14 9.32805 14 7.25462C14 6.3093 13.8141 5.39368 13.45 4.52962ZM10.8969 11.5671H3.10313C2.49937 11.0227 2.01682 10.3575 1.68681 9.61454C1.35679 8.87159 1.18667 8.06756 1.1875 7.25462C1.1875 5.70149 1.79219 4.24212 2.89062 3.14524C3.98906 2.0468 5.44844 1.44212 7 1.44212C8.55313 1.44212 10.0125 2.0468 11.1094 3.14524C12.2078 4.24368 12.8125 5.70305 12.8125 7.25462C12.8125 8.90462 12.1172 10.4656 10.8969 11.5671ZM8.74219 5.09055C8.71869 5.06729 8.68697 5.05424 8.65391 5.05424C8.62084 5.05424 8.58912 5.06729 8.56563 5.09055L7.24531 6.41087C6.95312 6.33274 6.62969 6.40774 6.4 6.63743C6.31865 6.71863 6.2541 6.81508 6.21007 6.92125C6.16603 7.02742 6.14336 7.14124 6.14336 7.25618C6.14336 7.37112 6.16603 7.48494 6.21007 7.59111C6.2541 7.69728 6.31865 7.79373 6.4 7.87493C6.4812 7.95628 6.57765 8.02083 6.68382 8.06486C6.78999 8.1089 6.90381 8.13157 7.01875 8.13157C7.13369 8.13157 7.24751 8.1089 7.35368 8.06486C7.45985 8.02083 7.5563 7.95628 7.6375 7.87493C7.74632 7.76644 7.82458 7.63114 7.86436 7.48271C7.90414 7.33429 7.90404 7.17799 7.86406 7.02962L9.18437 5.7093C9.23281 5.66087 9.23281 5.58118 9.18437 5.53274L8.74219 5.09055ZM6.65625 3.50462H7.34375C7.4125 3.50462 7.46875 3.44837 7.46875 3.37962V2.12962C7.46875 2.06087 7.4125 2.00462 7.34375 2.00462H6.65625C6.5875 2.00462 6.53125 2.06087 6.53125 2.12962V3.37962C6.53125 3.44837 6.5875 3.50462 6.65625 3.50462ZM10.7188 6.91087V7.59837C10.7188 7.66712 10.775 7.72337 10.8438 7.72337H12.0938C12.1625 7.72337 12.2188 7.66712 12.2188 7.59837V6.91087C12.2188 6.84212 12.1625 6.78587 12.0938 6.78587H10.8438C10.775 6.78587 10.7188 6.84212 10.7188 6.91087ZM10.9172 3.82962L10.4312 3.34368C10.4078 3.32042 10.376 3.30737 10.343 3.30737C10.3099 3.30737 10.2782 3.32042 10.2547 3.34368L9.37031 4.22805C9.34705 4.25155 9.334 4.28327 9.334 4.31634C9.334 4.3494 9.34705 4.38112 9.37031 4.40462L9.85625 4.89055C9.90469 4.93899 9.98438 4.93899 10.0328 4.89055L10.9172 4.00618C10.9656 3.95774 10.9656 3.87805 10.9172 3.82962ZM3.75156 3.34368C3.72807 3.32042 3.69634 3.30737 3.66328 3.30737C3.63022 3.30737 3.59849 3.32042 3.575 3.34368L3.08906 3.82962C3.0658 3.85311 3.05275 3.88484 3.05275 3.9179C3.05275 3.95096 3.0658 3.98269 3.08906 4.00618L3.97344 4.89055C4.02187 4.93899 4.10156 4.93899 4.15 4.89055L4.63594 4.40462C4.68438 4.35618 4.68438 4.27649 4.63594 4.22805L3.75156 3.34368ZM3.09375 6.78587H1.84375C1.775 6.78587 1.71875 6.84212 1.71875 6.91087V7.59837C1.71875 7.66712 1.775 7.72337 1.84375 7.72337H3.09375C3.1625 7.72337 3.21875 7.66712 3.21875 7.59837V6.91087C3.21875 6.84212 3.1625 6.78587 3.09375 6.78587Z" fill="black" fill-opacity="0.85"/>
</svg>
