<svg width="14" height="14" viewBox="0 0 14 14" fill="none" xmlns="http://www.w3.org/2000/svg">
<g clip-path="url(#clip0_181957_6123)">
<path d="M13.5 1.49728H0.5C0.223437 1.49728 0 1.72072 0 1.99728V11.9973C0 12.2738 0.223437 12.4973 0.5 12.4973H13.5C13.7766 12.4973 14 12.2738 14 11.9973V1.99728C14 1.72072 13.7766 1.49728 13.5 1.49728ZM12.875 4.74728H9.5625V2.62228H12.875V4.74728ZM12.875 8.24728H9.5625V5.74728H12.875V8.24728ZM5.4375 5.74728H8.5625V8.24728H5.4375V5.74728ZM8.5625 4.74728H5.4375V2.62228H8.5625V4.74728ZM1.125 5.74728H4.4375V8.24728H1.125V5.74728ZM1.125 2.62228H4.4375V4.74728H1.125V2.62228ZM1.125 9.24728H4.4375V11.3723H1.125V9.24728ZM5.4375 9.24728H8.5625V11.3723H5.4375V9.24728ZM12.875 11.3723H9.5625V9.24728H12.875V11.3723Z" fill="black" fill-opacity="0.85"/>
</g>
<defs>
<clipPath id="clip0_181957_6123">
<rect width="14" height="14" fill="white"/>
</clipPath>
</defs>
</svg>
