<svg width="14" height="14" viewBox="0 0 14 14" fill="none" xmlns="http://www.w3.org/2000/svg">
<path d="M13.1252 6.5013H12.2502C12.1815 6.5013 12.1252 6.55755 12.1252 6.6263V11.6263H1.87524V1.3763H6.87524C6.94399 1.3763 7.00024 1.32005 7.00024 1.2513V0.376297C7.00024 0.307547 6.94399 0.251297 6.87524 0.251297H1.25024C0.973682 0.251297 0.750244 0.474735 0.750244 0.751297V12.2513C0.750244 12.5279 0.973682 12.7513 1.25024 12.7513H12.7502C13.0268 12.7513 13.2502 12.5279 13.2502 12.2513V6.6263C13.2502 6.55755 13.194 6.5013 13.1252 6.5013Z" fill="#1890FF"/>
<path d="M4.56108 6.85911L4.53139 8.71692C4.52983 8.85598 4.64233 8.97005 4.78139 8.97005H4.78764L6.63139 8.92473C6.66264 8.92317 6.69389 8.91067 6.71577 8.8888L13.2142 2.40442C13.2626 2.35598 13.2626 2.2763 13.2142 2.22786L11.272 0.287235C11.247 0.262235 11.2158 0.251297 11.183 0.251297C11.1501 0.251297 11.1189 0.263797 11.0939 0.287235L4.59702 6.77161C4.57445 6.79521 4.56161 6.82646 4.56108 6.85911ZM5.55327 7.22786L11.183 1.61067L11.8892 2.31536L6.25639 7.93567L5.54233 7.95286L5.55327 7.22786Z" fill="#1890FF"/>
</svg>
