<svg width="15" height="14" viewBox="0 0 15 14" fill="none" xmlns="http://www.w3.org/2000/svg">
<g clip-path="url(#clip0_182085_1501)">
<rect width="14" height="14" transform="translate(0.5 0.000976562)" fill="white" fill-opacity="0.01"/>
<g clip-path="url(#clip1_182085_1501)">
<path d="M13.3424 7.33966C13.6049 6.99279 13.7502 6.56779 13.7502 6.1256C13.7502 5.42404 13.3581 4.75997 12.7268 4.38966C12.5643 4.29434 12.3793 4.24417 12.1909 4.24435H8.444L8.53775 2.32404C8.55962 1.85997 8.39556 1.41935 8.07681 1.08341C7.92038 0.917829 7.73166 0.786087 7.5223 0.696324C7.31294 0.606562 7.08741 0.560687 6.85962 0.561535C6.04712 0.561535 5.32837 1.10841 5.11274 1.89122L3.77056 6.7506H1.75024C1.47368 6.7506 1.25024 6.97404 1.25024 7.2506V12.9381C1.25024 13.2147 1.47368 13.4381 1.75024 13.4381H11.1456C11.2893 13.4381 11.4299 13.41 11.5596 13.3537C12.3034 13.0365 12.7831 12.31 12.7831 11.5037C12.7831 11.3068 12.7549 11.1131 12.6987 10.9256C12.9612 10.5787 13.1065 10.1537 13.1065 9.71154C13.1065 9.51466 13.0784 9.32091 13.0221 9.13341C13.2846 8.78654 13.4299 8.36154 13.4299 7.91935C13.4268 7.72247 13.3987 7.52716 13.3424 7.33966ZM2.37524 12.3131V7.8756H3.64087V12.3131H2.37524ZM12.319 6.79747L11.9768 7.09435L12.194 7.49122C12.2655 7.62196 12.3027 7.76875 12.3018 7.91779C12.3018 8.1756 12.1893 8.42091 11.9956 8.58966L11.6534 8.88654L11.8706 9.28341C11.9421 9.41414 11.9792 9.56094 11.9784 9.70997C11.9784 9.96779 11.8659 10.2131 11.6721 10.3818L11.3299 10.6787L11.5471 11.0756C11.6187 11.2063 11.6558 11.3531 11.6549 11.5022C11.6549 11.8522 11.4487 12.1678 11.1299 12.3115H4.64087V7.8256L6.19556 2.19279C6.23565 2.04841 6.3217 1.92104 6.44069 1.82997C6.55967 1.7389 6.7051 1.68909 6.85493 1.6881C6.97368 1.6881 7.09087 1.72247 7.18462 1.79279C7.33931 1.90841 7.42212 2.08341 7.41274 2.26935L7.26274 5.36935H12.1752C12.4534 5.53966 12.6252 5.82716 12.6252 6.1256C12.6252 6.38341 12.5127 6.62716 12.319 6.79747Z" fill="black" fill-opacity="0.45"/>
</g>
</g>
<defs>
<clipPath id="clip0_182085_1501">
<rect width="14" height="14" fill="white" transform="translate(0.5 0.000976562)"/>
</clipPath>
<clipPath id="clip1_182085_1501">
<rect width="14" height="14" fill="white" transform="translate(0.5 0.000976562)"/>
</clipPath>
</defs>
</svg>
