<svg width="15" height="14" viewBox="0 0 15 14" fill="none" xmlns="http://www.w3.org/2000/svg">
<g clip-path="url(#clip0_182085_1509)">
<rect width="14" height="14" transform="translate(0.5 0.000976562)" fill="white" fill-opacity="0.01"/>
<g clip-path="url(#clip1_182085_1509)">
<path d="M6.75009 7.00098C6.75009 7.19989 6.82911 7.39065 6.96976 7.53131C7.11041 7.67196 7.30118 7.75098 7.50009 7.75098C7.699 7.75098 7.88977 7.67196 8.03042 7.53131C8.17107 7.39065 8.25009 7.19989 8.25009 7.00098C8.25009 6.80206 8.17107 6.6113 8.03042 6.47065C7.88977 6.32999 7.699 6.25098 7.50009 6.25098C7.30118 6.25098 7.11041 6.32999 6.96976 6.47065C6.82911 6.6113 6.75009 6.80206 6.75009 7.00098ZM9.87509 7.00098C9.87509 7.19989 9.95411 7.39065 10.0948 7.53131C10.2354 7.67196 10.4262 7.75098 10.6251 7.75098C10.824 7.75098 11.0148 7.67196 11.1554 7.53131C11.2961 7.39065 11.3751 7.19989 11.3751 7.00098C11.3751 6.80206 11.2961 6.6113 11.1554 6.47065C11.0148 6.32999 10.824 6.25098 10.6251 6.25098C10.4262 6.25098 10.2354 6.32999 10.0948 6.47065C9.95411 6.6113 9.87509 6.80206 9.87509 7.00098ZM3.62509 7.00098C3.62509 7.19989 3.70411 7.39065 3.84476 7.53131C3.98541 7.67196 4.17618 7.75098 4.37509 7.75098C4.574 7.75098 4.76477 7.67196 4.90542 7.53131C5.04607 7.39065 5.12509 7.19989 5.12509 7.00098C5.12509 6.80206 5.04607 6.6113 4.90542 6.47065C4.76477 6.32999 4.574 6.25098 4.37509 6.25098C4.17618 6.25098 3.98541 6.32999 3.84476 6.47065C3.70411 6.6113 3.62509 6.80206 3.62509 7.00098ZM13.9563 4.28848C13.6032 3.44941 13.097 2.69629 12.4517 2.04941C11.8109 1.40628 11.0501 0.895073 10.2126 0.544727C9.35321 0.183789 8.44071 0.000976562 7.50009 0.000976562H7.46884C6.52196 0.00566406 5.60478 0.193164 4.74228 0.561914C3.9119 0.915854 3.15831 1.42797 2.52353 2.06973C1.88446 2.71504 1.3829 3.46504 1.03603 4.30098C0.676651 5.1666 0.495401 6.08691 0.500089 7.03379C0.505391 8.1189 0.762107 9.18802 1.25009 10.1572V12.5322C1.25009 12.7229 1.32581 12.9057 1.46061 13.0405C1.5954 13.1753 1.77821 13.251 1.96884 13.251H4.3454C5.31461 13.739 6.38373 13.9957 7.46884 14.001H7.50165C8.43759 14.001 9.3454 13.8197 10.2001 13.465C11.0334 13.1189 11.7913 12.6136 12.4313 11.9775C13.0767 11.3385 13.5845 10.5916 13.9392 9.75879C14.3079 8.89629 14.4954 7.9791 14.5001 7.03223C14.5048 6.08066 14.3204 5.15723 13.9563 4.28848ZM11.5954 11.1322C10.5001 12.2166 9.04696 12.8135 7.50009 12.8135H7.47353C6.53134 12.8088 5.5954 12.5744 4.76884 12.1338L4.63759 12.0635H2.43759V9.86348L2.36728 9.73223C1.92665 8.90566 1.69228 7.96973 1.68759 7.02754C1.68134 5.46973 2.27665 4.00723 3.36884 2.90566C4.45946 1.8041 5.91728 1.19473 7.47509 1.18848H7.50165C8.2829 1.18848 9.04071 1.34004 9.75478 1.64004C10.4517 1.93223 11.0767 2.35254 11.6142 2.89004C12.1501 3.42598 12.572 4.05254 12.8642 4.74941C13.1673 5.47129 13.3188 6.23691 13.3157 7.02754C13.3063 8.58379 12.6954 10.0416 11.5954 11.1322Z" fill="black" fill-opacity="0.45"/>
</g>
</g>
<defs>
<clipPath id="clip0_182085_1509">
<rect width="14" height="14" fill="white" transform="translate(0.5 0.000976562)"/>
</clipPath>
<clipPath id="clip1_182085_1509">
<rect width="14" height="14" fill="white" transform="translate(0.5 0.000976562)"/>
</clipPath>
</defs>
</svg>
