<svg width="14" height="14" viewBox="0 0 14 14" fill="none" xmlns="http://www.w3.org/2000/svg">
<g clip-path="url(#clip0_181957_6135)">
<path d="M12.7498 0.752014H1.24976C0.973193 0.752014 0.749756 0.975452 0.749756 1.25201V12.752C0.749756 13.0286 0.973193 13.252 1.24976 13.252H12.7498C13.0263 13.252 13.2498 13.0286 13.2498 12.752V1.25201C13.2498 0.975452 13.0263 0.752014 12.7498 0.752014ZM12.1248 12.127H1.87476V1.87701H12.1248V12.127ZM6.68726 5.25201H9.56226C9.63101 5.25201 9.68726 5.19576 9.68726 5.12701V4.37701C9.68726 4.30826 9.63101 4.25201 9.56226 4.25201H6.68726C6.61851 4.25201 6.56226 4.30826 6.56226 4.37701V5.12701C6.56226 5.19576 6.61851 5.25201 6.68726 5.25201ZM6.68726 7.50202H9.56226C9.63101 7.50202 9.68726 7.44577 9.68726 7.37702V6.62701C9.68726 6.55826 9.63101 6.50201 9.56226 6.50201H6.68726C6.61851 6.50201 6.56226 6.55826 6.56226 6.62701V7.37702C6.56226 7.44577 6.61851 7.50202 6.68726 7.50202ZM6.68726 9.75202H9.56226C9.63101 9.75202 9.68726 9.69577 9.68726 9.62702V8.87702C9.68726 8.80826 9.63101 8.75202 9.56226 8.75202H6.68726C6.61851 8.75202 6.56226 8.80826 6.56226 8.87702V9.62702C6.56226 9.69577 6.61851 9.75202 6.68726 9.75202ZM4.31226 4.75201C4.31226 4.91778 4.3781 5.07675 4.49531 5.19396C4.61252 5.31117 4.7715 5.37701 4.93726 5.37701C5.10302 5.37701 5.26199 5.31117 5.3792 5.19396C5.49641 5.07675 5.56226 4.91778 5.56226 4.75201C5.56226 4.58625 5.49641 4.42728 5.3792 4.31007C5.26199 4.19286 5.10302 4.12701 4.93726 4.12701C4.7715 4.12701 4.61252 4.19286 4.49531 4.31007C4.3781 4.42728 4.31226 4.58625 4.31226 4.75201ZM4.31226 7.00202C4.31226 7.16778 4.3781 7.32675 4.49531 7.44396C4.61252 7.56117 4.7715 7.62702 4.93726 7.62702C5.10302 7.62702 5.26199 7.56117 5.3792 7.44396C5.49641 7.32675 5.56226 7.16778 5.56226 7.00202C5.56226 6.83625 5.49641 6.67728 5.3792 6.56007C5.26199 6.44286 5.10302 6.37701 4.93726 6.37701C4.7715 6.37701 4.61252 6.44286 4.49531 6.56007C4.3781 6.67728 4.31226 6.83625 4.31226 7.00202ZM4.31226 9.25202C4.31226 9.41778 4.3781 9.57675 4.49531 9.69396C4.61252 9.81117 4.7715 9.87702 4.93726 9.87702C5.10302 9.87702 5.26199 9.81117 5.3792 9.69396C5.49641 9.57675 5.56226 9.41778 5.56226 9.25202C5.56226 9.08626 5.49641 8.92728 5.3792 8.81007C5.26199 8.69286 5.10302 8.62702 4.93726 8.62702C4.7715 8.62702 4.61252 8.69286 4.49531 8.81007C4.3781 8.92728 4.31226 9.08626 4.31226 9.25202Z" fill="black" fill-opacity="0.85"/>
</g>
<defs>
<clipPath id="clip0_181957_6135">
<rect width="14" height="14" fill="white"/>
</clipPath>
</defs>
</svg>
