<svg width="14" height="14" viewBox="0 0 14 14" fill="none" xmlns="http://www.w3.org/2000/svg">
<g clip-path="url(#clip0_181957_6111)">
<path d="M13.1252 6.99869H12.2502C12.1815 6.99869 12.1252 7.05494 12.1252 7.12369V12.1237H1.87524V1.87369H6.87524C6.94399 1.87369 7.00024 1.81744 7.00024 1.74869V0.873688C7.00024 0.804938 6.94399 0.748688 6.87524 0.748688H1.25024C0.973682 0.748688 0.750244 0.972125 0.750244 1.24869V12.7487C0.750244 13.0253 0.973682 13.2487 1.25024 13.2487H12.7502C13.0268 13.2487 13.2502 13.0253 13.2502 12.7487V7.12369C13.2502 7.05494 13.194 6.99869 13.1252 6.99869Z" fill="black" fill-opacity="0.85"/>
<path d="M4.56108 7.3565L4.53139 9.21431C4.52983 9.35337 4.64233 9.46744 4.78139 9.46744H4.78764L6.63139 9.42212C6.66264 9.42056 6.69389 9.40806 6.71577 9.38619L13.2142 2.90181C13.2626 2.85338 13.2626 2.77369 13.2142 2.72525L11.272 0.784625C11.247 0.759625 11.2158 0.748688 11.183 0.748688C11.1501 0.748688 11.1189 0.761188 11.0939 0.784625L4.59702 7.269C4.57445 7.2926 4.56161 7.32385 4.56108 7.3565ZM5.55327 7.72525L11.183 2.10806L11.8892 2.81275L6.25639 8.43306L5.54233 8.45025L5.55327 7.72525Z" fill="black" fill-opacity="0.85"/>
</g>
<defs>
<clipPath id="clip0_181957_6111">
<rect width="14" height="14" fill="white"/>
</clipPath>
</defs>
</svg>
