<svg width="14" height="14" viewBox="0 0 14 14" fill="none" xmlns="http://www.w3.org/2000/svg">
<g clip-path="url(#clip0_181957_6089)">
<path d="M13.45 5.02702C13.0986 4.19532 12.5892 3.43969 11.95 2.80202C11.3123 2.16282 10.5567 1.6534 9.725 1.30202C8.86094 0.936397 7.94531 0.752022 7 0.752022C6.05469 0.752022 5.13906 0.936397 4.275 1.30202C3.4433 1.6534 2.68767 2.16282 2.05 2.80202C1.41079 3.43969 0.901382 4.19532 0.55 5.02702C0.184375 5.89109 0 6.80671 0 7.75202C0 9.82546 0.910937 11.7786 2.49844 13.113L2.525 13.1348C2.61563 13.2098 2.72969 13.252 2.84687 13.252H11.1547C11.2719 13.252 11.3859 13.2098 11.4766 13.1348L11.5031 13.113C13.0891 11.7786 14 9.82546 14 7.75202C14 6.80671 13.8141 5.89109 13.45 5.02702ZM10.8969 12.0645H3.10313C2.49937 11.5201 2.01682 10.8549 1.68681 10.1119C1.35679 9.369 1.18667 8.56497 1.1875 7.75202C1.1875 6.1989 1.79219 4.73952 2.89062 3.64265C3.98906 2.54421 5.44844 1.93952 7 1.93952C8.55313 1.93952 10.0125 2.54421 11.1094 3.64265C12.2078 4.74108 12.8125 6.20046 12.8125 7.75202C12.8125 9.40202 12.1172 10.963 10.8969 12.0645ZM8.74219 5.58796C8.71869 5.5647 8.68697 5.55165 8.65391 5.55165C8.62084 5.55165 8.58912 5.5647 8.56563 5.58796L7.24531 6.90827C6.95312 6.83015 6.62969 6.90515 6.4 7.13484C6.31865 7.21604 6.2541 7.31248 6.21007 7.41865C6.16603 7.52483 6.14336 7.63864 6.14336 7.75358C6.14336 7.86853 6.16603 7.98234 6.21007 8.08852C6.2541 8.19469 6.31865 8.29114 6.4 8.37234C6.4812 8.45369 6.57765 8.51823 6.68382 8.56227C6.78999 8.60631 6.90381 8.62897 7.01875 8.62897C7.13369 8.62897 7.24751 8.60631 7.35368 8.56227C7.45985 8.51823 7.5563 8.45369 7.6375 8.37234C7.74632 8.26384 7.82458 8.12855 7.86436 7.98012C7.90414 7.83169 7.90404 7.6754 7.86406 7.52702L9.18437 6.20671C9.23281 6.15827 9.23281 6.07858 9.18437 6.03015L8.74219 5.58796ZM6.65625 4.00202H7.34375C7.4125 4.00202 7.46875 3.94577 7.46875 3.87702V2.62702C7.46875 2.55827 7.4125 2.50202 7.34375 2.50202H6.65625C6.5875 2.50202 6.53125 2.55827 6.53125 2.62702V3.87702C6.53125 3.94577 6.5875 4.00202 6.65625 4.00202ZM10.7188 7.40827V8.09577C10.7188 8.16452 10.775 8.22077 10.8438 8.22077H12.0938C12.1625 8.22077 12.2188 8.16452 12.2188 8.09577V7.40827C12.2188 7.33952 12.1625 7.28327 12.0938 7.28327H10.8438C10.775 7.28327 10.7188 7.33952 10.7188 7.40827ZM10.9172 4.32702L10.4312 3.84108C10.4078 3.81782 10.376 3.80477 10.343 3.80477C10.3099 3.80477 10.2782 3.81782 10.2547 3.84108L9.37031 4.72546C9.34705 4.74895 9.334 4.78068 9.334 4.81374C9.334 4.8468 9.34705 4.87853 9.37031 4.90202L9.85625 5.38796C9.90469 5.4364 9.98438 5.4364 10.0328 5.38796L10.9172 4.50358C10.9656 4.45515 10.9656 4.37546 10.9172 4.32702ZM3.75156 3.84108C3.72807 3.81782 3.69634 3.80477 3.66328 3.80477C3.63022 3.80477 3.59849 3.81782 3.575 3.84108L3.08906 4.32702C3.0658 4.35052 3.05275 4.38224 3.05275 4.4153C3.05275 4.44837 3.0658 4.48009 3.08906 4.50358L3.97344 5.38796C4.02187 5.4364 4.10156 5.4364 4.15 5.38796L4.63594 4.90202C4.68438 4.85358 4.68438 4.7739 4.63594 4.72546L3.75156 3.84108ZM3.09375 7.28327H1.84375C1.775 7.28327 1.71875 7.33952 1.71875 7.40827V8.09577C1.71875 8.16452 1.775 8.22077 1.84375 8.22077H3.09375C3.1625 8.22077 3.21875 8.16452 3.21875 8.09577V7.40827C3.21875 7.33952 3.1625 7.28327 3.09375 7.28327Z" fill="#1890FF"/>
</g>
<defs>
<clipPath id="clip0_181957_6089">
<rect width="14" height="14" fill="white"/>
</clipPath>
</defs>
</svg>
