<svg width="14" height="14" viewBox="0 0 14 14" fill="none" xmlns="http://www.w3.org/2000/svg">
<path d="M12.4136 10.9295C12.1189 10.2313 11.6911 9.59714 11.1542 9.06229C10.619 8.5259 9.98491 8.09824 9.28705 7.80292C9.2808 7.79979 9.27455 7.79823 9.2683 7.79511C10.2417 7.09198 10.8746 5.94667 10.8746 4.65448C10.8746 2.51386 9.14018 0.77948 6.99955 0.77948C4.85893 0.77948 3.12455 2.51386 3.12455 4.65448C3.12455 5.94667 3.75736 7.09198 4.7308 7.79667C4.72455 7.79979 4.7183 7.80136 4.71205 7.80448C4.01205 8.09979 3.38393 8.52323 2.84486 9.06386C2.30847 9.59912 1.88081 10.2332 1.58549 10.931C1.29537 11.6143 1.1389 12.3467 1.12455 13.0889C1.12413 13.1055 1.12706 13.1221 1.13315 13.1377C1.13925 13.1532 1.14839 13.1673 1.16004 13.1793C1.17169 13.1912 1.18561 13.2007 1.20098 13.2072C1.21636 13.2137 1.23287 13.217 1.24955 13.217H2.18705C2.2558 13.217 2.31049 13.1623 2.31205 13.0951C2.3433 11.8889 2.82768 10.7592 3.68393 9.90292C4.56986 9.01698 5.74643 8.52948 6.99955 8.52948C8.25268 8.52948 9.42924 9.01698 10.3152 9.90292C11.1714 10.7592 11.6558 11.8889 11.6871 13.0951C11.6886 13.1639 11.7433 13.217 11.8121 13.217H12.7496C12.7662 13.217 12.7827 13.2137 12.7981 13.2072C12.8135 13.2007 12.8274 13.1912 12.8391 13.1793C12.8507 13.1673 12.8599 13.1532 12.8659 13.1377C12.872 13.1221 12.875 13.1055 12.8746 13.0889C12.8589 12.342 12.7042 11.6154 12.4136 10.9295ZM6.99955 7.34198C6.28236 7.34198 5.60736 7.06229 5.09955 6.55448C4.59174 6.04667 4.31205 5.37167 4.31205 4.65448C4.31205 3.93729 4.59174 3.26229 5.09955 2.75448C5.60736 2.24667 6.28236 1.96698 6.99955 1.96698C7.71674 1.96698 8.39174 2.24667 8.89955 2.75448C9.40736 3.26229 9.68705 3.93729 9.68705 4.65448C9.68705 5.37167 9.40736 6.04667 8.89955 6.55448C8.39174 7.06229 7.71674 7.34198 6.99955 7.34198Z" fill="black" fill-opacity="0.85"/>
</svg>
