<svg width="15" height="14" viewBox="0 0 15 14" fill="none" xmlns="http://www.w3.org/2000/svg">
<rect width="14" height="14" transform="translate(0.5)" fill="white"/>
<path d="M14 1H1C0.723437 1 0.5 1.22344 0.5 1.5V11.5C0.5 11.7766 0.723437 12 1 12H14C14.2766 12 14.5 11.7766 14.5 11.5V1.5C14.5 1.22344 14.2766 1 14 1ZM13.375 4.25H10.0625V2.125H13.375V4.25ZM13.375 7.75H10.0625V5.25H13.375V7.75ZM5.9375 5.25H9.0625V7.75H5.9375V5.25ZM9.0625 4.25H5.9375V2.125H9.0625V4.25ZM1.625 5.25H4.9375V7.75H1.625V5.25ZM1.625 2.125H4.9375V4.25H1.625V2.125ZM1.625 8.75H4.9375V10.875H1.625V8.75ZM5.9375 8.75H9.0625V10.875H5.9375V8.75ZM13.375 10.875H10.0625V8.75H13.375V10.875Z" fill="#1890FF"/>
</svg>
