<svg width="14" height="14" viewBox="0 0 14 14" fill="none" xmlns="http://www.w3.org/2000/svg">
<g clip-path="url(#clip0_182048_5440)">
<path d="M6.99799 0.00158691C3.13236 0.00158691 -0.00201416 3.13596 -0.00201416 7.00159C-0.00201416 10.8672 3.13236 14.0016 6.99799 14.0016C10.8636 14.0016 13.998 10.8672 13.998 7.00159C13.998 3.13596 10.8636 0.00158691 6.99799 0.00158691ZM6.99799 12.8141C3.78861 12.8141 1.18549 10.211 1.18549 7.00159C1.18549 3.79221 3.78861 1.18909 6.99799 1.18909C10.2074 1.18909 12.8105 3.79221 12.8105 7.00159C12.8105 10.211 10.2074 12.8141 6.99799 12.8141Z" fill="black" fill-opacity="0.45"/>
<path d="M6.24774 4.25159C6.24774 4.4505 6.32676 4.64126 6.46741 4.78192C6.60806 4.92257 6.79883 5.00159 6.99774 5.00159C7.19665 5.00159 7.38742 4.92257 7.52807 4.78192C7.66872 4.64126 7.74774 4.4505 7.74774 4.25159C7.74774 4.05267 7.66872 3.86191 7.52807 3.72126C7.38742 3.5806 7.19665 3.50159 6.99774 3.50159C6.79883 3.50159 6.60806 3.5806 6.46741 3.72126C6.32676 3.86191 6.24774 4.05267 6.24774 4.25159ZM7.37274 6.00159H6.62274C6.55399 6.00159 6.49774 6.05784 6.49774 6.12659V10.3766C6.49774 10.4453 6.55399 10.5016 6.62274 10.5016H7.37274C7.44149 10.5016 7.49774 10.4453 7.49774 10.3766V6.12659C7.49774 6.05784 7.44149 6.00159 7.37274 6.00159Z" fill="black" fill-opacity="0.45"/>
</g>
<defs>
<clipPath id="clip0_182048_5440">
<rect width="14" height="14" fill="white" transform="translate(-0.00201416 0.00158691)"/>
</clipPath>
</defs>
</svg>
