<svg width="13" height="12" viewBox="0 0 13 12" fill="none" xmlns="http://www.w3.org/2000/svg">
<g clip-path="url(#clip0_182156_4818)">
<path d="M9.16115 2.06694V1.03168C9.16115 0.941944 9.05803 0.89239 8.98838 0.947301L2.95088 5.66293C2.89959 5.70282 2.85808 5.7539 2.82953 5.81227C2.80098 5.87065 2.78613 5.93477 2.78613 5.99976C2.78613 6.06474 2.80098 6.12886 2.82953 6.18724C2.85808 6.24561 2.89959 6.29669 2.95088 6.33659L8.98838 11.0522C9.05937 11.1071 9.16115 11.0576 9.16115 10.9678V9.93257C9.16115 9.86694 9.13035 9.804 9.07946 9.76382L4.25803 6.00043L9.07946 2.23569C9.13035 2.19551 9.16115 2.13257 9.16115 2.06694Z" fill="#D9D9D9"/>
</g>
<defs>
<clipPath id="clip0_182156_4818">
<rect width="12" height="12" fill="white" transform="translate(0.321533 0.000488281)"/>
</clipPath>
</defs>
</svg>
