<svg width="47" height="47" viewBox="0 0 47 47" fill="none" xmlns="http://www.w3.org/2000/svg">
<g clip-path="url(#clip0_39889_87846)">
<path d="M21.3086 1.46055L1.13754 21.5479C0.0531107 22.6278 0.0531107 24.3721 1.13754 25.452L21.3086 45.5393C22.3931 46.6193 24.1446 46.6193 25.229 45.5393L33.6865 37.117C34.6577 36.1499 34.6577 34.5818 33.6865 33.6146C32.7153 32.6475 31.1407 32.6475 30.1695 33.6146L23.758 39.9995C23.4881 40.2683 23.0784 40.2683 22.8085 39.9995L6.70045 23.9584C6.43054 23.6896 6.43054 23.2816 6.70045 23.0128L22.8085 6.97166C23.0784 6.70287 23.4881 6.70287 23.758 6.97166L30.1695 13.3566C31.1407 14.3237 32.7153 14.3237 33.6865 13.3566C34.6577 12.3894 34.6577 10.8213 33.6865 9.85419L25.23 1.43277C24.1411 0.376211 22.3889 0.384764 21.3086 1.46055Z" fill="url(#paint0_linear_39889_87846)"/>
<path d="M21.3086 1.46055L1.13754 21.5479C0.0531107 22.6278 0.0531107 24.3721 1.13754 25.452L21.3086 45.5393C22.3931 46.6193 24.1446 46.6193 25.229 45.5393L33.6865 37.117C34.6577 36.1499 34.6577 34.5818 33.6865 33.6146C32.7153 32.6475 31.1407 32.6475 30.1695 33.6146L23.758 39.9995C23.4881 40.2683 23.0784 40.2683 22.8085 39.9995L6.70045 23.9584C6.43054 23.6896 6.43054 23.2816 6.70045 23.0128L22.8085 6.97166C23.4806 6.3942 24.5772 5.22457 26.1875 4.95101C27.3842 4.74771 28.6926 5.19517 30.1126 6.2934C29.1632 5.34799 27.5357 3.72777 25.23 1.43277C24.1411 0.376211 22.3889 0.384764 21.3086 1.46055Z" fill="url(#paint1_linear_39889_87846)"/>
<path d="M35.6388 31.7464C36.61 32.7136 38.1846 32.7136 39.1558 31.7464L45.3944 25.5337C46.4789 24.4538 46.4789 22.7095 45.3946 21.6297L39.1015 15.385C38.128 14.419 36.5529 14.4204 35.5812 15.3882C34.61 16.3553 34.61 17.9234 35.5812 18.8905L39.8315 23.1232C40.1014 23.392 40.1014 23.8 39.8315 24.0688L35.6388 28.2441C34.6676 29.2112 34.6676 30.7793 35.6388 31.7464Z" fill="url(#paint2_linear_39889_87846)"/>
<path d="M23.3695 29.0239C26.3774 29.0239 28.8157 26.5957 28.8157 23.6004C28.8157 20.605 26.3774 18.1768 23.3695 18.1768C20.3617 18.1768 17.9233 20.605 17.9233 23.6004C17.9233 26.5957 20.3617 29.0239 23.3695 29.0239Z" fill="url(#paint3_linear_39889_87846)"/>
</g>
<defs>
<linearGradient id="paint0_linear_39889_87846" x1="21.4953" y1="0.646974" x2="40.6289" y2="12.3706" gradientUnits="userSpaceOnUse">
<stop stop-color="#4285EB"/>
<stop offset="1" stop-color="#2EC7FF"/>
</linearGradient>
<linearGradient id="paint1_linear_39889_87846" x1="24.0664" y1="0.646972" x2="14.6597" y2="49.4258" gradientUnits="userSpaceOnUse">
<stop stop-color="#29CDFF"/>
<stop offset="0.378601" stop-color="#148EFF"/>
<stop offset="1" stop-color="#0A60FF"/>
</linearGradient>
<linearGradient id="paint2_linear_39889_87846" x1="42.7662" y1="12.3507" x2="30.5059" y2="31.5889" gradientUnits="userSpaceOnUse">
<stop stop-color="#FA816E"/>
<stop offset="0.414726" stop-color="#F74A5C"/>
<stop offset="1" stop-color="#F51D2C"/>
</linearGradient>
<linearGradient id="paint3_linear_39889_87846" x1="25.3441" y1="14.3054" x2="21.271" y2="30.6528" gradientUnits="userSpaceOnUse">
<stop stop-color="#FA8E7D"/>
<stop offset="0.512635" stop-color="#F74A5C"/>
<stop offset="1" stop-color="#F51D2C"/>
</linearGradient>
<clipPath id="clip0_39889_87846">
<rect width="46.1538" height="46" fill="white" transform="translate(0.172852 0.5)"/>
</clipPath>
</defs>
</svg>
