<svg width="16" height="16" viewBox="0 0 16 16" fill="none" xmlns="http://www.w3.org/2000/svg">
<path d="M2.75 7.98413C2.75 8.09904 2.77263 8.21282 2.81661 8.31898C2.86058 8.42514 2.92503 8.5216 3.00628 8.60285C3.08753 8.6841 3.18399 8.74855 3.29015 8.79253C3.39631 8.8365 3.51009 8.85913 3.625 8.85913C3.73991 8.85913 3.85369 8.8365 3.95985 8.79253C4.06601 8.74855 4.16247 8.6841 4.24372 8.60285C4.32497 8.5216 4.38942 8.42514 4.43339 8.31898C4.47737 8.21282 4.5 8.09904 4.5 7.98413C4.5 7.86922 4.47737 7.75544 4.43339 7.64928C4.38942 7.54312 4.32497 7.44666 4.24372 7.36541C4.16247 7.28416 4.06601 7.21971 3.95985 7.17574C3.85369 7.13176 3.73991 7.10913 3.625 7.10913C3.51009 7.10913 3.39631 7.13176 3.29015 7.17574C3.18399 7.21971 3.08753 7.28416 3.00628 7.36541C2.92503 7.44666 2.86058 7.54312 2.81661 7.64928C2.77263 7.75544 2.75 7.86922 2.75 7.98413ZM7.125 7.98413C7.125 8.2162 7.21719 8.43875 7.38128 8.60285C7.54538 8.76694 7.76794 8.85913 8 8.85913C8.23207 8.85913 8.45462 8.76694 8.61872 8.60285C8.78281 8.43875 8.875 8.2162 8.875 7.98413C8.875 7.75207 8.78281 7.52951 8.61872 7.36541C8.45462 7.20132 8.23207 7.10913 8 7.10913C7.76794 7.10913 7.54538 7.20132 7.38128 7.36541C7.21719 7.52951 7.125 7.75207 7.125 7.98413ZM11.5 7.98413C11.5 8.2162 11.5922 8.43875 11.7563 8.60285C11.9204 8.76694 12.1429 8.85913 12.375 8.85913C12.6071 8.85913 12.8296 8.76694 12.9937 8.60285C13.1578 8.43875 13.25 8.2162 13.25 7.98413C13.25 7.75207 13.1578 7.52951 12.9937 7.36541C12.8296 7.20132 12.6071 7.10913 12.375 7.10913C12.1429 7.10913 11.9204 7.20132 11.7563 7.36541C11.5922 7.52951 11.5 7.75207 11.5 7.98413Z" fill="black" fill-opacity="0.45"/>
</svg>
