<svg width="24" height="24" viewBox="0 0 24 24" fill="none" xmlns="http://www.w3.org/2000/svg">
<path d="M17.4276 16.5692H16.999V10.4978C16.999 7.97813 15.1365 5.89599 12.7133 5.54956V4.85492C12.7133 4.46028 12.3937 4.14063 11.999 4.14063C11.6044 4.14063 11.2847 4.46028 11.2847 4.85492V5.54956C8.86152 5.89599 6.99902 7.97813 6.99902 10.4978V16.5692H6.57045C6.25438 16.5692 5.99902 16.8246 5.99902 17.1406V17.7121C5.99902 17.7906 6.06331 17.8549 6.14188 17.8549H9.99902C9.99902 18.9585 10.8955 19.8549 11.999 19.8549C13.1026 19.8549 13.999 18.9585 13.999 17.8549H17.8562C17.9347 17.8549 17.999 17.7906 17.999 17.7121V17.1406C17.999 16.8246 17.7437 16.5692 17.4276 16.5692ZM11.999 18.7121C11.5258 18.7121 11.1419 18.3281 11.1419 17.8549H12.8562C12.8562 18.3281 12.4722 18.7121 11.999 18.7121ZM8.28474 16.5692V10.4978C8.28474 9.50492 8.67045 8.57278 9.37224 7.87099C10.074 7.1692 11.0062 6.78349 11.999 6.78349C12.9919 6.78349 13.924 7.1692 14.6258 7.87099C15.3276 8.57278 15.7133 9.50492 15.7133 10.4978V16.5692H8.28474Z" fill="white"/>
</svg>
