<svg width="16" height="17" viewBox="0 0 16 17" fill="none" xmlns="http://www.w3.org/2000/svg">
<g clip-path="url(#clip0_181875_6704)">
<path d="M13.7163 8.04804H12.502V4.04804C12.502 2.78554 11.4788 1.76233 10.2163 1.76233H5.78774C4.52524 1.76233 3.50202 2.78554 3.50202 4.04804V8.04804H2.28774C1.97167 8.04804 1.71631 8.3034 1.71631 8.61947V15.4766C1.71631 15.7927 1.97167 16.048 2.28774 16.048H13.7163C14.0324 16.048 14.2877 15.7927 14.2877 15.4766V8.61947C14.2877 8.3034 14.0324 8.04804 13.7163 8.04804ZM4.78774 4.04804C4.78774 3.49626 5.23595 3.04804 5.78774 3.04804H10.2163C10.7681 3.04804 11.2163 3.49626 11.2163 4.04804V8.04804H4.78774V4.04804ZM13.002 14.7623H3.00202V9.33376H13.002V14.7623ZM7.50202 12.2802V13.2266C7.50202 13.3052 7.56631 13.3695 7.64488 13.3695H8.35917C8.43774 13.3695 8.50202 13.3052 8.50202 13.2266V12.2802C8.64943 12.1744 8.75945 12.0245 8.81626 11.8521C8.87306 11.6798 8.87372 11.4939 8.81813 11.3211C8.76254 11.1484 8.65358 10.9978 8.50692 10.8909C8.36027 10.784 8.18349 10.7264 8.00202 10.7264C7.82056 10.7264 7.64378 10.784 7.49713 10.8909C7.35047 10.9978 7.24151 11.1484 7.18592 11.3211C7.13033 11.4939 7.13099 11.6798 7.18779 11.8521C7.2446 12.0245 7.35462 12.1744 7.50202 12.2802Z" fill="#1890FF"/>
</g>
<defs>
<clipPath id="clip0_181875_6704">
<rect width="16" height="16" fill="white" transform="translate(0 0.899994)"/>
</clipPath>
</defs>
</svg>
