<svg width="14" height="14" viewBox="0 0 14 14" fill="none" xmlns="http://www.w3.org/2000/svg">
<path d="M7.46863 1.3772H6.53113C6.44779 1.3772 6.40613 1.41886 6.40613 1.5022V6.40845H1.75024C1.66691 6.40845 1.62524 6.45011 1.62524 6.53345V7.47095C1.62524 7.55428 1.66691 7.59595 1.75024 7.59595H6.40613V12.5022C6.40613 12.5855 6.44779 12.6272 6.53113 12.6272H7.46863C7.55196 12.6272 7.59363 12.5855 7.59363 12.5022V7.59595H12.2502C12.3336 7.59595 12.3752 7.55428 12.3752 7.47095V6.53345C12.3752 6.45011 12.3336 6.40845 12.2502 6.40845H7.59363V1.5022C7.59363 1.41886 7.55196 1.3772 7.46863 1.3772Z" fill="#1890FF"/>
</svg>
