<svg width="15" height="14" viewBox="0 0 15 14" fill="none" xmlns="http://www.w3.org/2000/svg">
<g clip-path="url(#clip0_182085_3510)">
<path d="M7.5 0C3.63437 0 0.5 3.13437 0.5 7C0.5 10.8656 3.63437 14 7.5 14C11.3656 14 14.5 10.8656 14.5 7C14.5 3.13437 11.3656 0 7.5 0ZM7.5 12.8125C4.29063 12.8125 1.6875 10.2094 1.6875 7C1.6875 3.79063 4.29063 1.1875 7.5 1.1875C10.7094 1.1875 13.3125 3.79063 13.3125 7C13.3125 10.2094 10.7094 12.8125 7.5 12.8125Z" fill="black" fill-opacity="0.85"/>
<path d="M9.24351 3.94795C8.77476 3.53701 8.15601 3.31201 7.49976 3.31201C6.84351 3.31201 6.22476 3.53857 5.75601 3.94795C5.26851 4.37451 4.99976 4.94795 4.99976 5.56201V5.68076C4.99976 5.74951 5.05601 5.80576 5.12476 5.80576H5.87476C5.94351 5.80576 5.99976 5.74951 5.99976 5.68076V5.56201C5.99976 4.87295 6.67319 4.31201 7.49976 4.31201C8.32632 4.31201 8.99976 4.87295 8.99976 5.56201C8.99976 6.04795 8.65601 6.49326 8.12319 6.69795C7.79194 6.82451 7.51069 7.04639 7.30913 7.33701C7.10444 7.63389 6.99819 7.99014 6.99819 8.35107V8.68701C6.99819 8.75576 7.05444 8.81201 7.12319 8.81201H7.87319C7.94194 8.81201 7.99819 8.75576 7.99819 8.68701V8.33232C7.999 8.18064 8.0455 8.03272 8.13162 7.90785C8.21775 7.78298 8.3395 7.68697 8.48101 7.63232C9.40288 7.27764 9.99819 6.46514 9.99819 5.56201C9.99976 4.94795 9.73101 4.37451 9.24351 3.94795ZM6.87476 10.437C6.87476 10.6028 6.9406 10.7617 7.05781 10.879C7.17502 10.9962 7.334 11.062 7.49976 11.062C7.66552 11.062 7.82449 10.9962 7.9417 10.879C8.05891 10.7617 8.12476 10.6028 8.12476 10.437C8.12476 10.2713 8.05891 10.1123 7.9417 9.99507C7.82449 9.87786 7.66552 9.81201 7.49976 9.81201C7.334 9.81201 7.17502 9.87786 7.05781 9.99507C6.9406 10.1123 6.87476 10.2713 6.87476 10.437Z" fill="black" fill-opacity="0.85"/>
</g>
<defs>
<clipPath id="clip0_182085_3510">
<rect width="14" height="14" fill="white" transform="translate(0.5)"/>
</clipPath>
</defs>
</svg>
