<svg width="14" height="14" viewBox="0 0 14 14" fill="none" xmlns="http://www.w3.org/2000/svg">
<path d="M10.9373 3.38955C10.7185 2.91143 10.4076 2.48174 10.0107 2.11455C9.20444 1.36611 8.13413 0.953613 6.99976 0.953613C5.86538 0.953613 4.79507 1.36611 3.98882 2.11299C3.59194 2.48174 3.28101 2.90986 3.06226 3.38955C2.83413 3.88955 2.71851 4.41924 2.71851 4.96611V5.38799C2.71851 5.48486 2.79663 5.56299 2.89351 5.56299H3.73726C3.83413 5.56299 3.91226 5.48486 3.91226 5.38799V4.96611C3.91226 3.41143 5.29663 2.14736 6.99976 2.14736C8.70288 2.14736 10.0873 3.41143 10.0873 4.96611C10.0873 5.60361 9.86069 6.20361 9.43101 6.70361C9.00601 7.19893 8.40601 7.55361 7.74194 7.70361C7.36226 7.78955 7.02007 8.00361 6.77788 8.30986C6.53654 8.61507 6.40499 8.99264 6.40444 9.38174V9.87236C6.40444 9.96924 6.48257 10.0474 6.57944 10.0474H7.42319C7.52007 10.0474 7.59819 9.96924 7.59819 9.87236V9.38174C7.59819 9.13643 7.76851 8.9208 8.00444 8.86768C8.91694 8.66143 9.74507 8.16924 10.3373 7.48174C10.6357 7.1333 10.8685 6.7458 11.0294 6.32549C11.1966 5.88955 11.281 5.43174 11.281 4.96611C11.281 4.41924 11.1654 3.88799 10.9373 3.38955ZM6.99976 11.2974C6.51694 11.2974 6.12476 11.6896 6.12476 12.1724C6.12476 12.6552 6.51694 13.0474 6.99976 13.0474C7.48257 13.0474 7.87476 12.6552 7.87476 12.1724C7.87476 11.6896 7.48257 11.2974 6.99976 11.2974Z" fill="black" fill-opacity="0.85"/>
</svg>
