<svg width="17" height="16" viewBox="0 0 17 16" fill="none" xmlns="http://www.w3.org/2000/svg">
<path d="M15.5912 2.59464L14.5841 3.38214C13.2109 1.62679 11.0751 0.5 8.67693 0.5C4.53586 0.5 1.18407 3.84821 1.17872 7.99107C1.17336 12.1375 4.53229 15.5 8.67693 15.5C11.9144 15.5 14.6734 13.4464 15.7234 10.5696C15.7501 10.4946 15.7109 10.4107 15.6359 10.3857L14.6234 10.0375C14.5881 10.0254 14.5494 10.0276 14.5157 10.0436C14.482 10.0596 14.4559 10.0882 14.443 10.1232C14.4109 10.2125 14.3751 10.3018 14.3376 10.3893C14.0287 11.1214 13.5859 11.7786 13.0216 12.3429C12.4618 12.9036 11.7991 13.3511 11.0698 13.6607C10.3144 13.9804 9.50907 14.1429 8.6805 14.1429C7.85015 14.1429 7.04657 13.9804 6.29122 13.6607C5.56117 13.3524 4.89822 12.9048 4.33943 12.3429C3.77818 11.7832 3.33119 11.1197 3.02336 10.3893C2.70372 9.63214 2.54122 8.82857 2.54122 7.99822C2.54122 7.16786 2.70372 6.36429 3.02336 5.60714C3.33229 4.875 3.77515 4.21786 4.33943 3.65357C4.90372 3.08929 5.56086 2.64643 6.29122 2.33571C7.04657 2.01607 7.85193 1.85357 8.6805 1.85357C9.51086 1.85357 10.3144 2.01607 11.0698 2.33571C11.7998 2.64401 12.4628 3.09164 13.0216 3.65357C13.1984 3.83036 13.3644 4.01786 13.518 4.21429L12.443 5.05357C12.4217 5.07003 12.4055 5.09215 12.3963 5.1174C12.387 5.14265 12.3851 5.16999 12.3907 5.1963C12.3963 5.2226 12.4092 5.24679 12.4279 5.26608C12.4467 5.28537 12.4704 5.29899 12.4966 5.30536L15.6323 6.07322C15.7216 6.09464 15.8091 6.02679 15.8091 5.93572L15.8234 2.70536C15.8216 2.5875 15.6841 2.52143 15.5912 2.59464Z" fill="black" fill-opacity="0.85"/>
</svg>
