<svg width="14" height="14" viewBox="0 0 14 14" fill="none" xmlns="http://www.w3.org/2000/svg">
<g clip-path="url(#clip0_181925_6533)">
<path d="M13.2118 12.3535L9.15396 8.29565C9.78364 7.48159 10.1243 6.48627 10.1243 5.4394C10.1243 4.18627 9.6352 3.01127 8.75083 2.12534C7.86645 1.2394 6.68833 0.7519 5.43677 0.7519C4.1852 0.7519 3.00708 1.24096 2.1227 2.12534C1.23677 3.00971 0.749268 4.18627 0.749268 5.4394C0.749268 6.69096 1.23833 7.86909 2.1227 8.75346C3.00708 9.6394 4.18364 10.1269 5.43677 10.1269C6.48364 10.1269 7.47739 9.78627 8.29146 9.15815L12.3493 13.2144C12.3612 13.2263 12.3753 13.2357 12.3908 13.2422C12.4064 13.2486 12.4231 13.252 12.4399 13.252C12.4567 13.252 12.4734 13.2486 12.4889 13.2422C12.5045 13.2357 12.5186 13.2263 12.5305 13.2144L13.2118 12.5347C13.2237 12.5228 13.2331 12.5087 13.2396 12.4931C13.246 12.4776 13.2493 12.4609 13.2493 12.4441C13.2493 12.4273 13.246 12.4106 13.2396 12.395C13.2331 12.3795 13.2237 12.3654 13.2118 12.3535ZM7.91177 7.9144C7.24927 8.57534 6.37114 8.9394 5.43677 8.9394C4.50239 8.9394 3.62427 8.57534 2.96177 7.9144C2.30083 7.2519 1.93677 6.37377 1.93677 5.4394C1.93677 4.50502 2.30083 3.62534 2.96177 2.9644C3.62427 2.30346 4.50239 1.9394 5.43677 1.9394C6.37114 1.9394 7.25083 2.3019 7.91177 2.9644C8.57271 3.6269 8.93677 4.50502 8.93677 5.4394C8.93677 6.37377 8.57271 7.25346 7.91177 7.9144Z" fill="white"/>
</g>
<defs>
<clipPath id="clip0_181925_6533">
<rect width="14" height="14" fill="white" transform="translate(-0.000976562)"/>
</clipPath>
</defs>
</svg>
