<svg width="15" height="14" viewBox="0 0 15 14" fill="none" xmlns="http://www.w3.org/2000/svg">
<g clip-path="url(#clip0_182048_3571)">
<path d="M13.9498 8.77886L12.9264 7.90386C12.9748 7.60699 12.9998 7.30386 12.9998 7.00074C12.9998 6.69761 12.9748 6.39449 12.9264 6.09761L13.9498 5.22261C14.027 5.15653 14.0823 5.06851 14.1082 4.97026C14.1342 4.87202 14.1296 4.7682 14.0951 4.67261L14.0811 4.63199C13.7993 3.84453 13.3774 3.11454 12.8358 2.4773L12.8076 2.44449C12.7419 2.36722 12.6544 2.31168 12.5565 2.28519C12.4586 2.25869 12.3549 2.26247 12.2592 2.29605L10.9889 2.74761C10.5201 2.36324 9.99671 2.06011 9.43108 1.84761L9.18577 0.519485C9.16726 0.419551 9.11879 0.327614 9.04678 0.255888C8.97478 0.184162 8.88265 0.136043 8.78265 0.117923L8.74046 0.11011C7.9264 -0.0367645 7.07015 -0.0367645 6.25608 0.11011L6.2139 0.117923C6.11389 0.136043 6.02177 0.184162 5.94976 0.255888C5.87776 0.327614 5.82928 0.419551 5.81077 0.519485L5.5639 1.85386C5.00278 2.06641 4.48025 2.36937 4.01702 2.75074L2.73733 2.29605C2.64165 2.26221 2.53794 2.25828 2.43998 2.2848C2.34202 2.31131 2.25444 2.36701 2.18889 2.44449L2.16077 2.4773C1.61975 3.11499 1.19792 3.84486 0.915457 4.63199L0.901395 4.67261C0.831082 4.86792 0.888895 5.08667 1.04671 5.22261L2.08264 6.10699C2.03421 6.40074 2.01077 6.70074 2.01077 6.99917C2.01077 7.29917 2.03421 7.59917 2.08264 7.89136L1.04671 8.77574C0.969513 8.84182 0.914264 8.92984 0.888307 9.02808C0.86235 9.12633 0.866915 9.23015 0.901395 9.32574L0.915457 9.36636C1.19827 10.1539 1.61702 10.8804 2.16077 11.521L2.18889 11.5539C2.2546 11.6311 2.34218 11.6867 2.44009 11.7132C2.53799 11.7397 2.64162 11.7359 2.73733 11.7023L4.01702 11.2476C4.48265 11.6304 5.00296 11.9335 5.5639 12.1445L5.81077 13.4789C5.82928 13.5788 5.87776 13.6707 5.94976 13.7425C6.02177 13.8142 6.11389 13.8623 6.2139 13.8804L6.25608 13.8882C7.07763 14.0359 7.91892 14.0359 8.74046 13.8882L8.78265 13.8804C8.88265 13.8623 8.97478 13.8142 9.04678 13.7425C9.11879 13.6707 9.16726 13.5788 9.18577 13.4789L9.43108 12.1507C9.99648 11.9388 10.5229 11.6347 10.9889 11.2507L12.2592 11.7023C12.3549 11.7361 12.4586 11.7401 12.5566 11.7135C12.6545 11.687 12.7421 11.6313 12.8076 11.5539L12.8358 11.521C13.3795 10.8789 13.7983 10.1539 14.0811 9.36636L14.0951 9.32574C14.1655 9.13355 14.1076 8.9148 13.9498 8.77886ZM11.817 6.28199C11.8561 6.51792 11.8764 6.76011 11.8764 7.0023C11.8764 7.24449 11.8561 7.48667 11.817 7.72261L11.7139 8.34917L12.8811 9.34761C12.7041 9.75525 12.4808 10.1411 12.2155 10.4976L10.7655 9.98355L10.2748 10.3867C9.9014 10.6929 9.48577 10.9335 9.03577 11.1023L8.44046 11.3257L8.16077 12.8414C7.71947 12.8914 7.27394 12.8914 6.83264 12.8414L6.55296 11.3226L5.96233 11.096C5.51702 10.9273 5.10296 10.6867 4.73265 10.382L4.24202 9.9773L2.78265 10.496C2.51702 10.1382 2.29514 9.7523 2.11702 9.34605L3.29671 8.33824L3.19515 7.71324C3.15765 7.48042 3.13733 7.2398 3.13733 7.0023C3.13733 6.76324 3.15608 6.52417 3.19515 6.29136L3.29671 5.66636L2.11702 4.65855C2.29358 4.25074 2.51702 3.86636 2.78265 3.50855L4.24202 4.0273L4.73265 3.62261C5.10296 3.31792 5.51702 3.0773 5.96233 2.90855L6.55452 2.68511L6.83421 1.16636C7.27327 1.11636 7.72171 1.11636 8.16233 1.16636L8.44202 2.68199L9.03733 2.90542C9.48577 3.07417 9.90296 3.3148 10.2764 3.62105L10.767 4.02417L12.217 3.51011C12.4826 3.86792 12.7045 4.25386 12.8826 4.66011L11.7155 5.65855L11.817 6.28199ZM7.49983 4.09605C5.98108 4.09605 4.74983 5.3273 4.74983 6.84605C4.74983 8.3648 5.98108 9.59605 7.49983 9.59605C9.01858 9.59605 10.2498 8.3648 10.2498 6.84605C10.2498 5.3273 9.01858 4.09605 7.49983 4.09605ZM8.73733 8.08355C8.57502 8.24633 8.38213 8.3754 8.16975 8.46336C7.95738 8.55131 7.7297 8.59641 7.49983 8.59605C7.03265 8.59605 6.59358 8.41324 6.26233 8.08355C6.09956 7.92124 5.97048 7.72835 5.88252 7.51597C5.79457 7.30359 5.74947 7.07592 5.74983 6.84605C5.74983 6.37886 5.93264 5.9398 6.26233 5.60855C6.59358 5.2773 7.03265 5.09605 7.49983 5.09605C7.96702 5.09605 8.40608 5.2773 8.73733 5.60855C8.90011 5.77086 9.02919 5.96375 9.11714 6.17613C9.2051 6.38851 9.25019 6.61618 9.24983 6.84605C9.24983 7.31324 9.06702 7.7523 8.73733 8.08355Z" fill="white"/>
</g>
<defs>
<clipPath id="clip0_182048_3571">
<rect width="14" height="14" fill="white" transform="translate(0.5)"/>
</clipPath>
</defs>
</svg>
