<svg width="15" height="14" viewBox="0 0 15 14" fill="none" xmlns="http://www.w3.org/2000/svg">
<g clip-path="url(#clip0_182085_1494)">
<path d="M13.6891 4.51928L9.7219 3.94272L7.94847 0.347406C7.90003 0.248968 7.82034 0.169281 7.7219 0.120843C7.47503 -0.00103181 7.17503 0.100531 7.05159 0.347406L5.27815 3.94272L1.31097 4.51928C1.20159 4.53491 1.10159 4.58647 1.02503 4.66459C0.932469 4.75973 0.881465 4.88772 0.883223 5.02044C0.884981 5.15316 0.939357 5.27976 1.0344 5.37241L3.90472 8.17084L3.22659 12.1224C3.21069 12.2143 3.22086 12.3089 3.25595 12.3953C3.29105 12.4817 3.34966 12.5566 3.42514 12.6114C3.50062 12.6663 3.58995 12.6988 3.683 12.7055C3.77605 12.7121 3.8691 12.6925 3.95159 12.649L7.50003 10.7833L11.0485 12.649C11.1453 12.7005 11.2578 12.7177 11.3657 12.699C11.6375 12.6521 11.8203 12.3943 11.7735 12.1224L11.0953 8.17084L13.9657 5.37241C14.0438 5.29584 14.0953 5.19584 14.111 5.08647C14.1532 4.81303 13.9625 4.55991 13.6891 4.51928ZM9.88753 7.77709L10.4516 11.063L7.50003 9.51303L4.54847 11.0646L5.11253 7.77866L2.72503 5.45053L6.02503 4.97084L7.50003 1.98178L8.97503 4.97084L12.275 5.45053L9.88753 7.77709Z" fill="black" fill-opacity="0.45"/>
</g>
<defs>
<clipPath id="clip0_182085_1494">
<rect width="14" height="14" fill="white" transform="translate(0.5 0.000976562)"/>
</clipPath>
</defs>
</svg>
