<svg width="17" height="16" viewBox="0 0 17 16" fill="none" xmlns="http://www.w3.org/2000/svg">
<g clip-path="url(#clip0_182085_4498)">
<path d="M15.8712 10.033L14.7016 9.03304C14.757 8.69375 14.7855 8.34732 14.7855 8.00089C14.7855 7.65446 14.757 7.30804 14.7016 6.96875L15.8712 5.96875C15.9595 5.89323 16.0226 5.79264 16.0523 5.68035C16.0819 5.56807 16.0767 5.44942 16.0373 5.34018L16.0212 5.29375C15.6992 4.3938 15.2171 3.55953 14.598 2.83125L14.5659 2.79375C14.4908 2.70545 14.3907 2.64198 14.2788 2.61169C14.1669 2.58141 14.0485 2.58574 13.9391 2.62411L12.4873 3.14018C11.9516 2.70089 11.3534 2.35446 10.707 2.11161L10.4266 0.59375C10.4054 0.47954 10.35 0.374469 10.2677 0.292496C10.1855 0.210524 10.0802 0.15553 9.96588 0.134821L9.91767 0.125893C8.98731 -0.0419643 8.00874 -0.0419643 7.07838 0.125893L7.03017 0.134821C6.91587 0.15553 6.81059 0.210524 6.7283 0.292496C6.64601 0.374469 6.5906 0.47954 6.56945 0.59375L6.28731 2.11875C5.64604 2.36166 5.04886 2.7079 4.51945 3.14375L3.05695 2.62411C2.9476 2.58543 2.82908 2.58095 2.71712 2.61125C2.60516 2.64155 2.50508 2.7052 2.43017 2.79375L2.39802 2.83125C1.77971 3.56004 1.29762 4.39417 0.974808 5.29375L0.958737 5.34018C0.87838 5.56339 0.944451 5.81339 1.12481 5.96875L2.30874 6.97946C2.25338 7.31518 2.22659 7.65804 2.22659 7.99911C2.22659 8.34196 2.25338 8.68482 2.30874 9.01875L1.12481 10.0295C1.03659 10.105 0.973445 10.2056 0.94378 10.3179C0.914115 10.4301 0.919331 10.5488 0.958737 10.658L0.974808 10.7045C1.29802 11.6045 1.77659 12.4348 2.39802 13.167L2.43017 13.2045C2.50526 13.2928 2.60535 13.3562 2.71724 13.3865C2.82913 13.4168 2.94757 13.4125 3.05695 13.3741L4.51945 12.8545C5.05159 13.292 5.64624 13.6384 6.28731 13.8795L6.56945 15.4045C6.5906 15.5187 6.64601 15.6237 6.7283 15.7057C6.81059 15.7877 6.91587 15.8427 7.03017 15.8634L7.07838 15.8723C8.01729 16.0411 8.97876 16.0411 9.91767 15.8723L9.96588 15.8634C10.0802 15.8427 10.1855 15.7877 10.2677 15.7057C10.35 15.6237 10.4054 15.5187 10.4266 15.4045L10.707 13.8866C11.3531 13.6444 11.9547 13.2968 12.4873 12.858L13.9391 13.3741C14.0484 13.4128 14.167 13.4173 14.2789 13.387C14.3909 13.3567 14.491 13.293 14.5659 13.2045L14.598 13.167C15.2195 12.433 15.698 11.6045 16.0212 10.7045L16.0373 10.658C16.1177 10.4384 16.0516 10.1884 15.8712 10.033ZM13.4337 7.17946C13.4784 7.44911 13.5016 7.72589 13.5016 8.00268C13.5016 8.27946 13.4784 8.55625 13.4337 8.82589L13.3159 9.54197L14.6498 10.683C14.4476 11.1489 14.1923 11.5899 13.8891 11.9973L12.232 11.4098L11.6712 11.8705C11.2445 12.2205 10.7695 12.4955 10.2552 12.6884L9.57481 12.9438L9.25517 14.6759C8.75083 14.733 8.24165 14.733 7.73731 14.6759L7.41767 12.9402L6.74267 12.6813C6.23374 12.4884 5.76052 12.2134 5.33731 11.8652L4.77659 11.4027L3.10874 11.9955C2.80517 11.5866 2.55159 11.1455 2.34802 10.6813L3.69624 9.52946L3.58017 8.81518C3.53731 8.54911 3.51409 8.27411 3.51409 8.00268C3.51409 7.72946 3.53552 7.45625 3.58017 7.19018L3.69624 6.47589L2.34802 5.32411C2.54981 4.85804 2.80517 4.41875 3.10874 4.00982L4.77659 4.60268L5.33731 4.14018C5.76052 3.79196 6.23374 3.51696 6.74267 3.32411L7.41945 3.06875L7.73909 1.33304C8.24088 1.27589 8.75338 1.27589 9.25695 1.33304L9.57659 3.06518L10.257 3.32054C10.7695 3.51339 11.2462 3.78839 11.673 4.13839L12.2337 4.59911L13.8909 4.01161C14.1945 4.42054 14.448 4.86161 14.6516 5.32589L13.3177 6.46696L13.4337 7.17946ZM8.49981 4.68125C6.76409 4.68125 5.35695 6.08839 5.35695 7.82411C5.35695 9.55982 6.76409 10.967 8.49981 10.967C10.2355 10.967 11.6427 9.55982 11.6427 7.82411C11.6427 6.08839 10.2355 4.68125 8.49981 4.68125ZM9.91409 9.23839C9.7286 9.42442 9.50815 9.57194 9.26543 9.67246C9.02271 9.77298 8.76252 9.82452 8.49981 9.82411C7.96588 9.82411 7.46409 9.61518 7.08552 9.23839C6.89949 9.0529 6.75198 8.83245 6.65146 8.58973C6.55094 8.34701 6.4994 8.08682 6.49981 7.82411C6.49981 7.29018 6.70874 6.78839 7.08552 6.40982C7.46409 6.03125 7.96588 5.82411 8.49981 5.82411C9.03374 5.82411 9.53552 6.03125 9.91409 6.40982C10.1001 6.59532 10.2476 6.81577 10.3482 7.05848C10.4487 7.3012 10.5002 7.5614 10.4998 7.82411C10.4998 8.35804 10.2909 8.85982 9.91409 9.23839Z" fill="black" fill-opacity="0.85"/>
</g>
<defs>
<clipPath id="clip0_182085_4498">
<rect width="16" height="16" fill="white" transform="translate(0.5)"/>
</clipPath>
</defs>
</svg>
