<svg width="15" height="14" viewBox="0 0 15 14" fill="none" xmlns="http://www.w3.org/2000/svg">
<path d="M7.96863 1.37598H7.03113C6.94779 1.37598 6.90613 1.41764 6.90613 1.50098V6.40723H2.25024C2.16691 6.40723 2.12524 6.44889 2.12524 6.53223V7.46973C2.12524 7.55306 2.16691 7.59473 2.25024 7.59473H6.90613V12.501C6.90613 12.5843 6.94779 12.626 7.03113 12.626H7.96863C8.05196 12.626 8.09363 12.5843 8.09363 12.501V7.59473H12.7502C12.8336 7.59473 12.8752 7.55306 12.8752 7.46973V6.53223C12.8752 6.44889 12.8336 6.40723 12.7502 6.40723H8.09363V1.50098C8.09363 1.41764 8.05196 1.37598 7.96863 1.37598Z" fill="white"/>
</svg>
