<svg width="28" height="29" viewBox="0 0 28 29" fill="none" xmlns="http://www.w3.org/2000/svg">
<path d="M14 1.84998C7.23516 1.84998 1.75 7.33513 1.75 14.1C1.75 20.8648 7.23516 26.35 14 26.35C20.7648 26.35 26.25 20.8648 26.25 14.1C26.25 7.33513 20.7648 1.84998 14 1.84998ZM8.63242 8.07068C9.37891 8.07068 9.98594 8.67498 9.98594 9.42146C9.98594 10.1679 9.38164 10.7722 8.63242 10.7722C8.27417 10.7722 7.9306 10.6299 7.67728 10.3766C7.42395 10.1233 7.28164 9.77971 7.28164 9.42146C7.28164 9.06321 7.42395 8.71963 7.67728 8.46631C7.9306 8.21299 8.27417 8.07068 8.63242 8.07068ZM10.0324 15.9047C9.66055 17.0613 9.75352 16.6347 8.27148 19.8558L6.125 18.516C6.125 18.516 8.52305 16.334 9.0125 15.3386C9.5375 14.2886 8.43555 13.7281 8.43555 13.7281L6.78945 12.7027L7.68359 11.3301C8.925 12.2515 9.01523 12.3308 9.84922 13.1676C10.5 13.8211 10.4152 14.7207 10.0324 15.9047ZM21.7137 17.4086C21.2953 21.3406 16.1793 19.8777 16.1793 19.8777L16.4582 18.7539L17.6422 19.0082C19.8297 19.1449 19.6191 17.2336 19.6191 17.2336V11.6664C19.6355 9.55271 17.634 9.33123 14.0355 10.6191L14.8723 10.8461C14.8039 11.0922 14.5305 11.4804 14.1832 11.9015H18.9957V12.875H16.2859V14.0918H18.9848V15.0679H16.2859V17.1078C16.6934 16.9765 17.068 16.7933 17.3934 16.5472L17.1555 15.6586L18.427 15.2648L19.4879 17.8597L17.9211 18.5133L17.6422 17.4797C16.9422 18.0129 15.4875 18.7922 12.9445 18.7211C10.232 18.7922 10.9293 15.6586 10.9293 15.6586L10.9977 15.623H12.9062C12.8926 16.025 12.7258 16.6812 12.9527 17.0394C13.1387 17.3347 13.6145 17.384 13.918 17.3976C13.9535 17.4004 13.9891 17.4004 14.0246 17.4004V15.0679H11.2629V14.0918H14.0246V12.875H13.3164C12.6957 13.534 12.127 14.0808 12.127 14.0808L11.2902 13.3508C11.8836 12.7246 12.4742 11.7347 12.8434 11.0758C12.5453 11.1961 12.2418 11.3273 11.9246 11.464C11.6184 11.8551 11.2629 12.257 10.8664 12.6535C10.8801 12.6754 9.49922 11.8769 9.49922 11.8769C10.9266 10.6629 11.725 8.05154 11.725 8.05154L13.7074 8.60935C13.7074 8.60935 13.5461 8.99216 13.2043 9.58279C21.1422 7.3324 21.6098 10.9636 21.6098 10.9636C21.6098 10.9636 22.132 13.4738 21.7137 17.4086Z" fill="black" fill-opacity="0.45"/>
</svg>
