<svg width="14" height="14" viewBox="0 0 14 14" fill="none" xmlns="http://www.w3.org/2000/svg">
<path d="M7.00172 0.00585938C3.13609 0.00585938 0.00171661 3.14023 0.00171661 7.00586C0.00171661 10.8715 3.13609 14.0059 7.00172 14.0059C10.8673 14.0059 14.0017 10.8715 14.0017 7.00586C14.0017 3.14023 10.8673 0.00585938 7.00172 0.00585938ZM7.00172 12.8184C3.79234 12.8184 1.18922 10.2152 1.18922 7.00586C1.18922 3.79648 3.79234 1.19336 7.00172 1.19336C10.2111 1.19336 12.8142 3.79648 12.8142 7.00586C12.8142 10.2152 10.2111 12.8184 7.00172 12.8184Z" fill="black" fill-opacity="0.25"/>
<path d="M9.73153 8.98252L7.5034 7.37158V3.50439C7.5034 3.43564 7.44715 3.37939 7.3784 3.37939H6.62684C6.55809 3.37939 6.50184 3.43564 6.50184 3.50439V7.80752C6.50184 7.84815 6.52059 7.88564 6.5534 7.90908L9.13778 9.79346C9.19403 9.83408 9.27215 9.82158 9.31278 9.7669L9.75965 9.15752C9.80028 9.09971 9.78778 9.02158 9.73153 8.98252Z" fill="black" fill-opacity="0.25"/>
</svg>
