<svg width="16" height="17" viewBox="0 0 16 17" fill="none" xmlns="http://www.w3.org/2000/svg">
<g clip-path="url(#clip0_181875_7437)">
<path d="M14.1889 13.3937C13.8521 12.5958 13.3632 11.8711 12.7497 11.2598C12.1379 10.6468 11.4133 10.158 10.6157 9.82052C10.6086 9.81695 10.6014 9.81516 10.5943 9.81159C11.7068 9.00802 12.43 7.69909 12.43 6.2223C12.43 3.77588 10.4479 1.79373 8.00144 1.79373C5.55501 1.79373 3.57287 3.77588 3.57287 6.2223C3.57287 7.69909 4.29608 9.00802 5.40858 9.81338C5.40144 9.81695 5.3943 9.81873 5.38715 9.8223C4.58715 10.1598 3.8693 10.6437 3.25323 11.2616C2.64021 11.8733 2.15145 12.598 1.81394 13.3955C1.48237 14.1763 1.30355 15.0135 1.28715 15.8616C1.28668 15.8807 1.29002 15.8996 1.29699 15.9174C1.30395 15.9351 1.3144 15.9513 1.32771 15.9649C1.34103 15.9786 1.35694 15.9894 1.3745 15.9968C1.39207 16.0042 1.41095 16.008 1.43001 16.008H2.50144C2.58001 16.008 2.64251 15.9455 2.6443 15.8687C2.68001 14.4902 3.23358 13.1991 4.21215 12.2205C5.22465 11.208 6.5693 10.6509 8.00144 10.6509C9.43358 10.6509 10.7782 11.208 11.7907 12.2205C12.7693 13.1991 13.3229 14.4902 13.3586 15.8687C13.3604 15.9473 13.4229 16.008 13.5014 16.008H14.5729C14.5919 16.008 14.6108 16.0042 14.6284 15.9968C14.6459 15.9894 14.6619 15.9786 14.6752 15.9649C14.6885 15.9513 14.6989 15.9351 14.7059 15.9174C14.7129 15.8996 14.7162 15.8807 14.7157 15.8616C14.6979 15.008 14.5211 14.1777 14.1889 13.3937ZM8.00144 9.29373C7.1818 9.29373 6.41037 8.97409 5.83001 8.39373C5.24965 7.81338 4.93001 7.04195 4.93001 6.2223C4.93001 5.40266 5.24965 4.63123 5.83001 4.05087C6.41037 3.47052 7.1818 3.15087 8.00144 3.15087C8.82108 3.15087 9.59251 3.47052 10.1729 4.05087C10.7532 4.63123 11.0729 5.40266 11.0729 6.2223C11.0729 7.04195 10.7532 7.81338 10.1729 8.39373C9.59251 8.97409 8.82108 9.29373 8.00144 9.29373Z" fill="#1890FF"/>
</g>
<defs>
<clipPath id="clip0_181875_7437">
<rect width="16" height="16" fill="white" transform="translate(0 0.899994)"/>
</clipPath>
</defs>
</svg>
