<svg width="28" height="29" viewBox="0 0 28 29" fill="none" xmlns="http://www.w3.org/2000/svg">
<path d="M14 1.84998C7.23516 1.84998 1.75 7.33513 1.75 14.1C1.75 20.8648 7.23516 26.35 14 26.35C20.7648 26.35 26.25 20.8648 26.25 14.1C26.25 7.33513 20.7648 1.84998 14 1.84998ZM12.7859 20.225C9.65508 20.225 6.45312 18.7047 6.45312 16.2027C6.45312 14.8957 7.27891 13.3836 8.70352 11.9562C10.6039 10.0531 12.8215 9.18357 13.6555 10.0203C14.0246 10.3894 14.0602 11.0265 13.8223 11.7867C13.6992 12.1695 14.1805 11.959 14.1805 11.959C15.7172 11.3136 17.057 11.2754 17.5465 11.9781C17.809 12.3527 17.7816 12.875 17.541 13.4847C17.4289 13.7636 17.5766 13.8074 17.7871 13.8703C18.6539 14.1383 19.6164 14.789 19.6164 15.9347C19.6219 17.8351 16.8902 20.225 12.7859 20.225ZM18.4543 12.2734C18.5061 12.1144 18.5151 11.9445 18.4806 11.7809C18.446 11.6172 18.3691 11.4655 18.2574 11.341C18.1457 11.2168 18.0032 11.1244 17.8442 11.073C17.6853 11.0216 17.5156 11.0132 17.3523 11.0484C17.2882 11.0621 17.2221 11.0629 17.1577 11.051C17.0932 11.0391 17.0318 11.0146 16.9768 10.9789C16.9218 10.9433 16.8744 10.8971 16.8373 10.8431C16.8001 10.7891 16.774 10.7283 16.7604 10.6642C16.7467 10.6001 16.7458 10.534 16.7577 10.4695C16.7697 10.4051 16.7942 10.3436 16.8298 10.2887C16.8655 10.2337 16.9117 10.1863 16.9657 10.1492C17.0197 10.112 17.0804 10.0859 17.1445 10.0722C17.8035 9.93279 18.5145 10.1351 18.9957 10.6711C19.4797 11.207 19.6082 11.9371 19.4031 12.5797C19.3832 12.6419 19.3511 12.6996 19.3088 12.7494C19.2665 12.7992 19.2148 12.8401 19.1566 12.8699C19.0984 12.8996 19.0349 12.9175 18.9697 12.9226C18.9046 12.9277 18.8391 12.9199 18.777 12.8996C18.7146 12.8798 18.6567 12.8478 18.6067 12.8056C18.5567 12.7634 18.5156 12.7117 18.4856 12.6535C18.4556 12.5953 18.4374 12.5318 18.432 12.4666C18.4267 12.4014 18.4342 12.3357 18.4543 12.2734ZM21.3527 13.2113C21.3527 13.2113 21.3527 13.214 21.3527 13.2113C21.3298 13.2838 21.2927 13.351 21.2436 13.4091C21.1946 13.4672 21.1345 13.515 21.0669 13.5498C20.9994 13.5846 20.9255 13.6057 20.8498 13.6119C20.774 13.6181 20.6977 13.6093 20.6254 13.5859C20.4793 13.5384 20.358 13.4348 20.2883 13.2979C20.2185 13.161 20.206 13.002 20.2535 12.8558C20.5543 11.9207 20.3629 10.8543 19.6602 10.0722C19.326 9.7016 18.9002 9.42538 18.4255 9.27131C17.9509 9.11725 17.444 9.09076 16.9559 9.19451C16.8815 9.21039 16.8048 9.21146 16.73 9.19764C16.6553 9.18383 16.584 9.15541 16.5202 9.11401C16.4565 9.07261 16.4015 9.01905 16.3585 8.95638C16.3155 8.89371 16.2853 8.82317 16.2695 8.7488C16.2534 8.67464 16.252 8.59801 16.2655 8.52332C16.279 8.44863 16.3072 8.37734 16.3484 8.31356C16.3895 8.24979 16.4429 8.19477 16.5054 8.15168C16.5679 8.10859 16.6383 8.07828 16.7125 8.06248C18.0633 7.77537 19.5234 8.19373 20.516 9.29568C21.5086 10.3949 21.7766 11.8961 21.3527 13.2113ZM12.2063 13.3781C9.70703 13.6242 7.81211 15.1582 7.97617 16.8015C8.1375 18.4449 10.2949 19.5769 12.7941 19.3308C15.2934 19.082 17.1883 17.5508 17.0242 15.9047C16.8629 14.2613 14.7055 13.1293 12.2063 13.3781ZM14.3992 17.2527C13.8879 18.4093 12.4223 19.0246 11.1781 18.6226C9.97773 18.2344 9.46914 17.0449 9.99414 15.9758C10.5109 14.9258 11.8535 14.3324 13.043 14.6414C14.2734 14.9613 14.9023 16.1234 14.3992 17.2527ZM11.8562 16.3722C11.468 16.2109 10.9703 16.3777 10.7297 16.7523C10.4891 17.1297 10.6012 17.5781 10.984 17.7531C11.375 17.9308 11.8918 17.7613 12.1324 17.3758C12.373 16.9847 12.2473 16.539 11.8562 16.3722ZM12.8105 15.9758C12.6629 15.9156 12.477 15.9894 12.3895 16.1344C12.3047 16.282 12.3512 16.4488 12.5016 16.5117C12.652 16.5746 12.8461 16.5035 12.9336 16.3531C13.0156 16.2 12.9609 16.0304 12.8105 15.9758Z" fill="black" fill-opacity="0.45"/>
</svg>
